<svg width="507" height="300" viewBox="0 0 507 300" fill="none" xmlns="http://www.w3.org/2000/svg">
<path d="M1.66533 172.678C11.3137 157.205 20.4159 141.276 28.972 124.892C37.7101 108.508 46.0842 91.3045 54.0941 73.2821H85.2237L90.1389 79.5627C81.0367 97.403 72.8447 112.786 65.5629 125.711C58.4632 138.454 51.2724 149.104 43.9907 157.66C36.8909 166.034 28.6079 172.86 19.1416 178.14L14.2264 171.859L122.088 166.398V187.97H8.76506L1.66533 172.678ZM68.2936 171.313L72.6627 138.818L101.062 137.18V212H68.2936V171.313Z" fill="white"/>
<path d="M381.665 172.678C391.314 157.205 400.416 141.276 408.972 124.892C417.71 108.508 426.084 91.3045 434.094 73.2821H465.224L470.139 79.5627C461.037 97.403 452.845 112.786 445.563 125.711C438.463 138.454 431.272 149.104 423.991 157.66C416.891 166.034 408.608 172.86 399.142 178.14L394.226 171.859L502.088 166.398V187.97H388.765L381.665 172.678ZM448.294 171.313L452.663 138.818L481.062 137.18V212H448.294V171.313Z" fill="white"/>
<circle cx="253.5" cy="149.5" r="109.5" fill="#566065"/>
<path d="M287.277 109.784L287.313 109.712C287.313 109.712 287.293 109.733 287.288 109.743C287.288 109.728 287.293 109.718 287.298 109.702L287.262 109.774C271.375 127.383 268.259 147.58 268.259 147.58L278.524 127.178L268.28 147.59C268.28 147.59 282.604 133.087 287.277 109.784Z" fill="white"/>
<path d="M326.62 158.024C302.38 150.024 291.28 163.533 291.28 163.533C291.28 163.533 312.65 159.746 326.626 158.045L326.692 158.034C326.692 158.034 326.672 158.034 326.656 158.029" fill="white"/>
<path d="M338.577 180.891C338.577 180.891 295.159 159.7 259.819 184.329C270.089 171.415 291.48 146.683 315.038 132.348C315.038 132.348 266.609 143.111 254.909 185.903C257.364 171.907 261.556 138.017 253.536 99.6933V99.519C253.531 99.5498 253.525 99.5754 253.52 99.6062C253.515 99.5754 253.51 99.5498 253.505 99.519V99.6933C245.526 137.822 249.631 171.563 252.096 185.687C240.324 143.018 192.007 132.277 192.007 132.277C215.622 146.647 237.07 171.471 247.309 184.355C211.943 159.582 168.418 180.824 168.418 180.824C190.121 178.077 214.803 181.326 232.068 184.642C232.288 184.698 246.699 188.491 253.638 193.252C260.147 188.783 273.235 185.175 275.009 184.693C292.269 181.383 316.914 178.144 338.582 180.891H338.577Z" fill="white"/>
<path d="M220.066 110.066L220.03 109.994C220.03 109.994 220.051 110.015 220.056 110.025C220.056 110.01 220.051 109.999 220.046 109.984L220.082 110.056C235.968 127.664 239.084 147.861 239.084 147.861L228.819 127.459L239.064 147.872C239.064 147.872 224.74 133.368 220.066 110.066Z" fill="white"/>
<path d="M177.868 158.024C202.108 150.024 213.209 163.533 213.209 163.533C213.209 163.533 191.838 159.746 177.863 158.045L177.796 158.034C177.796 158.034 177.817 158.034 177.832 158.029" fill="white"/>
</svg>
