<svg width="120" height="91" viewBox="0 0 120 91" fill="none" xmlns="http://www.w3.org/2000/svg">
<path d="M84.2641 29.5272C88.2208 35.1803 90.5433 42.0635 90.5433 49.4885C90.5433 68.7392 74.9384 84.3441 55.6877 84.3441C36.4369 84.3441 20.832 68.7392 20.832 49.4929C20.832 30.2466 36.4369 14.6328 55.6877 14.6328C63.1126 14.6328 69.9959 16.9553 75.649 20.9121" stroke="#243037" stroke-width="3.5" stroke-miterlimit="10" stroke-linecap="round"/>
<path d="M75.3206 38.4756C77.1502 41.7307 78.1982 45.4876 78.1982 49.4932C78.1982 61.9229 68.1221 71.999 55.6924 71.999C43.2626 71.999 33.1865 61.9229 33.1865 49.4932C33.1865 37.0634 43.2626 26.9873 55.6924 26.9873C59.6935 26.9873 63.4504 28.0309 66.7099 29.8649" stroke="#243037" stroke-width="3.5" stroke-miterlimit="10" stroke-linecap="round"/>
<path d="M65.7412 48.0493C65.8078 48.52 65.8434 48.9996 65.8434 49.4881C65.8434 55.0968 61.296 59.6441 55.6873 59.6441C50.0786 59.6441 45.5312 55.0968 45.5312 49.4881C45.5312 43.8794 50.0786 39.332 55.6873 39.332C56.1758 39.332 56.6554 39.3676 57.1261 39.4342" stroke="#243037" stroke-width="3.5" stroke-miterlimit="10" stroke-linecap="round"/>
<path d="M91.418 13.7617L96.4805 8.69922" stroke="#0C7F8E" stroke-width="3.5" stroke-miterlimit="10" stroke-linecap="round"/>
<path d="M55.6875 49.4926L80.809 24.3711" stroke="#0C7F8E" stroke-width="3.5" stroke-miterlimit="10" stroke-linecap="round"/>
<path d="M80.809 24.3709L80.4627 17.501C80.4316 17.2701 80.5115 17.0348 80.6758 16.8705L89.7306 6.46128C89.9837 6.20816 90.4144 6.3547 90.4588 6.70552L91.418 13.7619" stroke="#0C7F8E" stroke-width="3.5" stroke-miterlimit="10" stroke-linecap="round"/>
<path d="M80.8086 24.371L87.6785 24.7174C87.9094 24.7484 88.1448 24.6685 88.3091 24.5042L98.7182 15.4495C98.9714 15.1963 98.8248 14.7656 98.474 14.7212L91.4176 13.762" stroke="#0C7F8E" stroke-width="3.5" stroke-miterlimit="10" stroke-linecap="round"/>
</svg>
