<svg width="120" height="91" viewBox="0 0 120 91" fill="none" xmlns="http://www.w3.org/2000/svg">
<path d="M56.9609 19.0818H77.9425C78.2123 19.0818 78.4304 19.2998 78.4304 19.5697V67.8316" stroke="#243037" stroke-width="3.5" stroke-miterlimit="10" stroke-linecap="round"/>
<path d="M35.9063 67.8324H23.8101C23.5403 67.8324 23.3223 67.6143 23.3223 67.3445V61.6426" stroke="#243037" stroke-width="3.5" stroke-miterlimit="10" stroke-linecap="round"/>
<path d="M85.8607 67.832H53.8105" stroke="#243037" stroke-width="3.5" stroke-miterlimit="10" stroke-linecap="round"/>
<path d="M78.7061 25.5684H97.0792C97.4772 25.5684 97.8451 25.7728 98.055 26.1108L110.991 46.9506C111.348 47.5284 111.538 48.1935 111.538 48.8721V63.6148C111.538 65.9425 109.65 67.8313 107.322 67.8313H103.582" stroke="#243037" stroke-width="3.5" stroke-miterlimit="10" stroke-linecap="round"/>
<path d="M103.473 69.4058C104.257 64.5753 100.977 60.0238 96.1464 59.2397C91.3159 58.4556 86.7644 61.7358 85.9803 66.5663C85.1962 71.3969 88.4764 75.9484 93.307 76.7325C98.1375 77.5166 102.689 74.2363 103.473 69.4058Z" stroke="#243037" stroke-width="3.5" stroke-miterlimit="10" stroke-linecap="round"/>
<path d="M51.2157 74.25C54.6761 70.7896 54.6761 65.1792 51.2157 61.7188C47.7553 58.2584 42.1449 58.2584 38.6845 61.7188C35.2241 65.1792 35.2241 70.7896 38.6845 74.25C42.1449 77.7104 47.7553 77.7104 51.2157 74.25Z" stroke="#243037" stroke-width="3.5" stroke-miterlimit="10" stroke-linecap="round"/>
<path d="M101.44 33.2988H90.9442C90.4154 33.2988 90.0175 33.7785 90.1101 34.2964L92.3179 46.7441C92.4214 47.3138 92.9175 47.7281 93.498 47.7281H111.01" stroke="#243037" stroke-width="3.5" stroke-miterlimit="10" stroke-linecap="round"/>
<path d="M49.7654 37.1663C52.171 26.974 45.8587 16.7613 35.6663 14.3557C25.474 11.9501 15.2613 18.2625 12.8557 28.4548C10.4501 38.6472 16.7625 48.8598 26.9548 51.2654C37.1472 53.671 47.3598 47.3586 49.7654 37.1663Z" stroke="#0C7F8E" stroke-width="3.5" stroke-miterlimit="10" stroke-linecap="round"/>
<path d="M31.3105 20.0366V32.8114H40.9918" stroke="#0C7F8E" stroke-width="3.5" stroke-miterlimit="10" stroke-linecap="round"/>
</svg>
