<svg width="120" height="91" viewBox="0 0 120 91" fill="none" xmlns="http://www.w3.org/2000/svg">
<g clip-path="url(#clip0_1_8495)">
<path d="M101.242 81.1499C101.242 81.0314 101.145 80.9382 101.03 80.9382H18.9822C18.8636 80.9382 18.7705 81.0356 18.7705 81.1499" stroke="#243037" stroke-width="3.5" stroke-miterlimit="10" stroke-linecap="round"/>
<path d="M34.0665 80.9335V69.4476C34.0665 68.2833 33.1224 67.335 31.9539 67.335H25.7474C24.5831 67.335 23.6348 68.2791 23.6348 69.4476V80.9335" stroke="#243037" stroke-width="3.5" stroke-miterlimit="10" stroke-linecap="round"/>
<path d="M44.4688 80.9334V49.2022C44.4688 48.0379 45.4129 47.0896 46.5813 47.0896H52.7879C53.9521 47.0896 54.9005 48.0337 54.9005 49.2022V80.9334" stroke="#243037" stroke-width="3.5" stroke-miterlimit="10" stroke-linecap="round"/>
<path d="M65.2979 80.9349V59.0469C65.2979 57.8827 66.242 56.9343 67.4104 56.9343H73.617C74.7812 56.9343 75.7296 57.8784 75.7296 59.0469V80.9349" stroke="#243037" stroke-width="3.5" stroke-miterlimit="10" stroke-linecap="round"/>
<path d="M86.127 80.9342V35.0498C86.127 33.8856 87.0711 32.9373 88.2395 32.9373H94.4461C95.6103 32.9373 96.5587 33.8814 96.5587 35.0498V80.9342" stroke="#243037" stroke-width="3.5" stroke-miterlimit="10" stroke-linecap="round"/>
<path d="M73.5527 35.431L88.3536 18.2932" stroke="#0C7F8E" stroke-width="3.5" stroke-miterlimit="10" stroke-linecap="round"/>
<path d="M53.8545 31.5479L66.293 37.077" stroke="#0C7F8E" stroke-width="3.5" stroke-miterlimit="10" stroke-linecap="round"/>
<path d="M32.3555 49.0427L46.6356 33.0945" stroke="#0C7F8E" stroke-width="3.5" stroke-miterlimit="10" stroke-linecap="round"/>
<path d="M54.2476 29.6946C54.2476 32.2178 52.2027 34.2627 49.6794 34.2627C47.1562 34.2627 45.1113 32.2178 45.1113 29.6946C45.1113 27.1713 47.1562 25.1265 49.6794 25.1265C52.2027 25.1265 54.2476 27.1713 54.2476 29.6946Z" stroke="#0C7F8E" stroke-width="3.5" stroke-miterlimit="10" stroke-linecap="round"/>
<path d="M34.0659 52.5981C34.0659 55.1214 32.0211 57.1662 29.4978 57.1662C26.9745 57.1662 24.9297 55.1214 24.9297 52.5981C24.9297 50.0749 26.9745 48.03 29.4978 48.03C32.0211 48.03 34.0659 50.0749 34.0659 52.5981Z" stroke="#0C7F8E" stroke-width="3.5" stroke-miterlimit="10" stroke-linecap="round"/>
<path d="M75.0776 38.8308C75.0776 41.3541 73.0328 43.3989 70.5095 43.3989C67.9863 43.3989 65.9414 41.3541 65.9414 38.8308C65.9414 36.3075 67.9863 34.2627 70.5095 34.2627C73.0328 34.2627 75.0776 36.3075 75.0776 38.8308Z" stroke="#0C7F8E" stroke-width="3.5" stroke-miterlimit="10" stroke-linecap="round"/>
<path d="M95.9067 14.8386C95.9067 17.3619 93.8619 19.4067 91.3386 19.4067C88.8154 19.4067 86.7705 17.3619 86.7705 14.8386C86.7705 12.3154 88.8154 10.2705 91.3386 10.2705C93.8619 10.2705 95.9067 12.3154 95.9067 14.8386Z" stroke="#0C7F8E" stroke-width="3.5" stroke-miterlimit="10" stroke-linecap="round"/>
</g>
<defs>
<clipPath id="clip0_1_8495">
<rect width="85.0117" height="73.42" fill="white" transform="translate(17.5 9)"/>
</clipPath>
</defs>
</svg>
