<svg width="204" height="30" viewBox="0 0 204 30" fill="none" xmlns="http://www.w3.org/2000/svg">
<path d="M37.0875 3.28552L37.0987 3.26256C37.0987 3.26256 37.0923 3.26912 37.0907 3.2724C37.0907 3.26748 37.0923 3.2642 37.0939 3.25928L37.0827 3.28224C32.1256 8.91811 31.1533 15.3823 31.1533 15.3823L34.3563 8.8525L31.1597 15.3856C31.1597 15.3856 35.6292 10.7437 37.0875 3.28552Z" fill="#FF5B04"/>
<path d="M49.3642 18.7251C41.8005 16.1647 38.3369 20.4884 38.3369 20.4884C38.3369 20.4884 45.0051 19.2763 49.3658 18.7317L49.3866 18.7284C49.3866 18.7284 49.3802 18.7284 49.3754 18.7268" fill="#FF5B04"/>
<path d="M53.0945 26.0437C53.0945 26.0437 39.547 19.2613 28.5197 27.1443C31.7243 23.0109 38.3989 15.0951 45.7499 10.5074C45.7499 10.5074 30.6385 13.9519 26.9878 27.6479C27.7538 23.1684 29.0618 12.3215 26.5592 0.0557679V0C26.5576 0.00984144 26.556 0.0180423 26.5544 0.0278838C26.5528 0.0180423 26.5513 0.00984144 26.5497 0V0.0557679C24.0599 12.2592 25.3407 23.0585 26.1099 27.579C22.4368 13.9224 7.3606 10.4844 7.3606 10.4844C14.7292 15.0837 21.4214 23.029 24.6164 27.1525C13.581 19.2236 0 26.0224 0 26.0224C6.77213 25.1432 14.4733 26.1832 19.8607 27.2444C19.9294 27.2624 24.4261 28.4762 26.5912 30C28.6221 28.5697 32.7061 27.415 33.2594 27.2608C38.6451 26.2012 46.3352 25.1646 53.0961 26.0437H53.0945Z" fill="#FF5B04"/>
<path d="M16.1157 3.37536L16.1045 3.3524C16.1045 3.3524 16.1109 3.35896 16.1125 3.36224C16.1125 3.35732 16.1109 3.35404 16.1093 3.34912L16.1205 3.37208C21.0777 9.00795 22.0499 15.4721 22.0499 15.4721L18.8469 8.94234L22.0435 15.4754C22.0435 15.4754 17.5741 10.8335 16.1157 3.37536Z" fill="#FF5B04"/>
<path d="M2.94817 18.7251C10.5119 16.1647 13.9755 20.4884 13.9755 20.4884C13.9755 20.4884 7.30728 19.2763 2.94657 18.7317L2.92578 18.7284C2.92578 18.7284 2.93218 18.7284 2.93697 18.7268" fill="#FF5B04"/>
<path d="M78.9446 20.1839C78.7863 21.6049 78.3011 22.8601 77.4958 23.9457C76.6906 25.0314 75.6287 25.8718 74.3171 26.4705C73.002 27.0692 71.5041 27.3686 69.8198 27.3686C67.9596 27.3686 66.3316 27.0007 64.9321 26.2685C63.5326 25.5363 62.439 24.512 61.6549 23.2027C60.8708 21.8935 60.4805 20.3606 60.4805 18.6113C60.4805 16.862 60.8708 15.3291 61.6549 14.0198C62.439 12.7106 63.5326 11.6899 64.9321 10.9541C66.3316 10.2219 67.9632 9.854 69.8198 9.854C71.5041 9.854 73.002 10.1534 74.3171 10.7521C75.6322 11.3508 76.6906 12.1912 77.4958 13.266C78.3011 14.3445 78.7828 15.5996 78.9446 17.0387H75.2208C75.0766 16.2452 74.7637 15.5599 74.2855 14.9829C73.8072 14.4058 73.1884 13.9621 72.4359 13.6447C71.6799 13.331 70.8008 13.1723 69.8022 13.1723C68.6559 13.1723 67.6643 13.3923 66.8309 13.8359C65.994 14.2795 65.3541 14.9071 64.904 15.7223C64.4539 16.5374 64.2288 17.5004 64.2288 18.6077C64.2288 19.715 64.4539 20.678 64.904 21.4931C65.3541 22.3083 65.9975 22.9394 66.8309 23.3795C67.6643 23.8195 68.6559 24.0431 69.8022 24.0431C70.8043 24.0431 71.6834 23.8916 72.4359 23.5815C73.1919 23.2749 73.8072 22.8312 74.2855 22.2578C74.7637 21.6807 75.0766 20.9882 75.2208 20.1803H78.9446V20.1839Z" fill="#224F55"/>
<path d="M88.1363 27.3684C86.5961 27.3684 85.2459 27.087 84.0855 26.528C82.9251 25.9653 82.0179 25.179 81.3639 24.1691C80.7098 23.1592 80.3828 21.987 80.3828 20.6525C80.3828 19.318 80.7098 18.1278 81.3639 17.1143C82.0179 16.1008 82.9251 15.3181 84.0855 14.7554C85.2459 14.1928 86.5961 13.915 88.1363 13.915C89.6764 13.915 91.0266 14.1964 92.187 14.7554C93.3474 15.3181 94.2511 16.1044 94.8981 17.1143C95.5451 18.1242 95.8686 19.3036 95.8686 20.6525C95.8686 22.0015 95.5451 23.1556 94.8981 24.1691C94.2511 25.179 93.3474 25.9653 92.187 26.528C91.0266 27.0906 89.6764 27.3684 88.1363 27.3684ZM88.1363 24.519C88.9766 24.519 89.701 24.3603 90.3023 24.0465C90.9036 23.7327 91.3677 23.2855 91.6947 22.7084C92.0218 22.1313 92.1835 21.446 92.1835 20.6525C92.1835 19.859 92.0218 19.1521 91.6947 18.575C91.3677 17.9979 90.9036 17.5543 90.3023 17.2369C89.701 16.9231 88.9766 16.7644 88.1363 16.7644C87.2959 16.7644 86.5891 16.9231 85.9808 17.2369C85.3724 17.5507 84.9013 17.9979 84.5778 18.575C84.2507 19.1521 84.089 19.8446 84.089 20.6525C84.089 21.4604 84.2507 22.1313 84.5778 22.7084C84.9048 23.2855 85.3724 23.7291 85.9808 24.0465C86.5891 24.3639 87.3099 24.519 88.1363 24.519Z" fill="#224F55"/>
<path d="M112.198 21.8214C112.054 22.9143 111.643 23.8809 110.967 24.7177C110.292 25.5581 109.424 26.2073 108.365 26.6726C107.307 27.1378 106.122 27.3687 104.814 27.3687C103.334 27.3687 102.029 27.0873 100.904 26.5283C99.7786 25.9656 98.8995 25.1757 98.2701 24.1586C97.6372 23.1415 97.3242 21.9729 97.3242 20.6564C97.3242 19.3399 97.6407 18.1533 98.2701 17.1434C98.903 16.1335 99.7786 15.3436 100.904 14.7738C102.029 14.2039 103.334 13.9189 104.814 13.9189C106.122 13.9189 107.303 14.1534 108.365 14.6259C109.424 15.0984 110.292 15.7476 110.967 16.5808C111.643 17.4103 112.054 18.3805 112.198 19.4878H108.562C108.372 18.6186 107.94 17.9477 107.265 17.4788C106.59 17.0064 105.774 16.7719 104.814 16.7719C104.044 16.7719 103.372 16.927 102.799 17.2336C102.226 17.5402 101.786 17.9838 101.48 18.5573C101.175 19.1344 101.023 19.8341 101.023 20.6564C101.023 21.4788 101.175 22.1569 101.48 22.7339C101.786 23.311 102.226 23.7511 102.799 24.0576C103.372 24.3642 104.044 24.5193 104.814 24.5193C105.788 24.5193 106.611 24.274 107.286 23.7799C107.961 23.2858 108.386 22.633 108.559 21.825H112.195L112.198 21.8214Z" fill="#224F55"/>
<path d="M121.26 27.3684C119.72 27.3684 118.37 27.087 117.209 26.528C116.049 25.9653 115.142 25.179 114.488 24.1691C113.834 23.1592 113.507 21.987 113.507 20.6525C113.507 19.318 113.834 18.1278 114.488 17.1143C115.142 16.1008 116.049 15.3181 117.209 14.7554C118.37 14.1928 119.72 13.915 121.26 13.915C122.8 13.915 124.151 14.1964 125.311 14.7554C126.471 15.3181 127.375 16.1044 128.022 17.1143C128.669 18.1242 128.993 19.3036 128.993 20.6525C128.993 22.0015 128.669 23.1556 128.022 24.1691C127.375 25.179 126.471 25.9653 125.311 26.528C124.151 27.0906 122.8 27.3684 121.26 27.3684ZM121.26 24.519C122.101 24.519 122.825 24.3603 123.426 24.0465C124.028 23.7327 124.492 23.2855 124.819 22.7084C125.146 22.1313 125.308 21.446 125.308 20.6525C125.308 19.859 125.146 19.1521 124.819 18.575C124.492 17.9979 124.028 17.5543 123.426 17.2369C122.825 16.9231 122.101 16.7644 121.26 16.7644C120.42 16.7644 119.713 16.9231 119.105 17.2369C118.496 17.5507 118.025 17.9979 117.702 18.575C117.375 19.1521 117.213 19.8446 117.213 20.6525C117.213 21.4604 117.375 22.1313 117.702 22.7084C118.029 23.2855 118.496 23.7291 119.105 24.0465C119.713 24.3639 120.434 24.519 121.26 24.519Z" fill="#224F55"/>
<path d="M126.66 10.1895H143.341V13.5582H126.66V10.1895ZM133.172 11.8955H136.854V27.0332H133.172V11.8955Z" fill="#224F55"/>
<path d="M142.646 14.2542H146.328L147.07 18.8565V27.0294H143.434V18.4489L142.65 14.2506L142.646 14.2542ZM153.1 14.1207V17.356C152.724 17.2659 152.344 17.1973 151.968 17.154C151.592 17.1108 151.237 17.0855 150.899 17.0855C150.175 17.0855 149.521 17.2442 148.941 17.558C148.36 17.8718 147.903 18.3587 147.569 19.0188C147.235 19.6788 147.07 20.5084 147.07 21.511L146.307 20.5661C146.395 19.6535 146.553 18.7951 146.785 17.9944C147.017 17.1937 147.341 16.4904 147.756 15.8845C148.171 15.2785 148.68 14.7988 149.292 14.449C149.901 14.0991 150.628 13.9224 151.469 13.9224C151.743 13.9224 152.024 13.9404 152.306 13.9801C152.591 14.0161 152.854 14.0666 153.1 14.1243V14.1207Z" fill="#224F55"/>
<path d="M166.711 20.6564C166.479 22.0054 166.054 23.1812 165.438 24.1947C164.823 25.2046 164.046 25.9873 163.107 26.5427C162.168 27.0982 161.12 27.3723 159.96 27.3723C158.799 27.3723 157.688 27.0909 156.76 26.5319C155.832 25.9728 155.107 25.183 154.594 24.173C154.077 23.1631 153.82 21.9909 153.82 20.6564C153.82 19.3219 154.077 18.1317 154.594 17.1182C155.107 16.1083 155.832 15.322 156.76 14.7593C157.688 14.1967 158.757 13.9189 159.96 13.9189C161.162 13.9189 162.172 14.1967 163.107 14.7485C164.042 15.304 164.823 16.083 165.449 17.0965C166.071 18.1064 166.493 19.2931 166.711 20.6564ZM157.498 20.6564C157.498 21.4066 157.646 22.0631 157.945 22.633C158.244 23.2028 158.652 23.6465 159.176 23.9711C159.7 24.2957 160.301 24.4544 160.983 24.4544C161.665 24.4544 162.309 24.2921 162.91 23.9711C163.511 23.6501 164.046 23.2028 164.51 22.633C164.974 22.0631 165.336 21.4066 165.6 20.6564C165.34 19.9062 164.974 19.2462 164.51 18.6691C164.046 18.092 163.511 17.6448 162.91 17.3202C162.309 16.9991 161.665 16.8368 160.983 16.8368C160.301 16.8368 159.7 16.9991 159.176 17.3202C158.652 17.6412 158.244 18.092 157.945 18.6691C157.646 19.2462 157.498 19.9062 157.498 20.6564ZM165.751 27.0332L165.227 22.3624L165.814 20.6564L165.227 18.9721L165.751 14.2544H169.517L168.8 20.6564L169.517 27.0332H165.751Z" fill="#224F55"/>
<path d="M184.223 20.656C183.991 22.005 183.565 23.1808 182.95 24.1943C182.335 25.2042 181.557 25.9869 180.619 26.5423C179.68 27.0978 178.632 27.3719 177.471 27.3719C176.311 27.3719 175.2 27.0906 174.272 26.5315C173.343 25.9724 172.619 25.1826 172.106 24.1727C171.589 23.1628 171.332 21.9905 171.332 20.656C171.332 19.3215 171.589 18.1313 172.106 17.1178C172.619 16.1079 173.343 15.3216 174.272 14.7589C175.2 14.1963 176.269 13.9186 177.471 13.9186C178.674 13.9186 179.683 14.1963 180.619 14.7481C181.554 15.3036 182.335 16.0826 182.96 17.0961C183.583 18.106 184.005 19.2927 184.223 20.656ZM175.01 20.656C175.01 21.4062 175.158 22.0627 175.457 22.6326C175.756 23.2024 176.163 23.6461 176.687 23.9707C177.211 24.2953 177.813 24.454 178.495 24.454C179.177 24.454 179.82 24.2917 180.422 23.9707C181.023 23.6497 181.557 23.2024 182.022 22.6326C182.486 22.0627 182.848 21.4062 183.112 20.656C182.851 19.9058 182.486 19.2458 182.022 18.6687C181.557 18.0916 181.023 17.6444 180.422 17.3198C179.82 16.9988 179.177 16.8364 178.495 16.8364C177.813 16.8364 177.211 16.9988 176.687 17.3198C176.163 17.6408 175.756 18.0916 175.457 18.6687C175.158 19.2458 175.01 19.9058 175.01 20.656ZM183.33 27.0329L182.806 22.2034L183.502 20.6777L182.827 18.813L183.808 9.73828H187.574L186.375 20.3819L187.092 27.0292H183.326L183.33 27.0329Z" fill="#224F55"/>
<path d="M196.459 27.3687C194.993 27.3687 193.681 27.0873 192.528 26.5283C191.374 25.9656 190.467 25.1757 189.806 24.1586C189.145 23.1415 188.814 21.9585 188.814 20.6095C188.814 19.2606 189.131 18.11 189.76 17.1073C190.393 16.1047 191.258 15.322 192.362 14.7593C193.467 14.1967 194.722 13.9189 196.128 13.9189C197.535 13.9189 198.801 14.2436 199.831 14.8964C200.861 15.5492 201.656 16.4653 202.215 17.6484C202.774 18.8314 203.052 20.2236 203.052 21.825H191.726V19.3327H201.09L199.673 20.2308C199.613 19.4806 199.437 18.8458 199.138 18.3228C198.839 17.7999 198.439 17.3959 197.929 17.111C197.419 16.826 196.825 16.6854 196.142 16.6854C195.4 16.6854 194.761 16.8404 194.215 17.147C193.67 17.4536 193.249 17.8792 192.953 18.4274C192.654 18.9757 192.507 19.6141 192.507 20.3463C192.507 21.2299 192.696 21.9837 193.073 22.6149C193.449 23.2425 194.001 23.7222 194.729 24.054C195.453 24.3822 196.332 24.5482 197.363 24.5482C198.291 24.5482 199.23 24.4111 200.172 24.1334C201.114 23.8557 201.965 23.4625 202.721 22.954V25.4679C201.909 26.0666 200.96 26.5355 199.88 26.8709C198.797 27.2064 197.654 27.3759 196.452 27.3759L196.459 27.3687Z" fill="#224F55"/>
</svg>
