<svg width="260" height="175" viewBox="0 0 260 175" fill="none" xmlns="http://www.w3.org/2000/svg">
<path d="M174.866 38.7631L174.914 38.6669C174.914 38.6669 174.887 38.6944 174.88 38.7082C174.88 38.6876 174.887 38.6738 174.894 38.6532L174.846 38.7494C153.594 62.3591 149.426 89.4387 149.426 89.4387L163.157 62.0842L149.454 89.4525C149.454 89.4525 168.614 70.0068 174.866 38.7631Z" fill="#FF5B04"/>
<path d="M227.495 103.442C195.069 92.7162 180.221 110.829 180.221 110.829C180.221 110.829 208.807 105.751 227.502 103.47L227.591 103.456C227.591 103.456 227.563 103.456 227.543 103.449" fill="#FF5B04"/>
<path d="M243.488 134.102C243.488 134.102 185.41 105.689 138.136 138.713C151.874 121.397 180.488 88.2362 212.002 69.0173C212.002 69.0173 147.219 83.447 131.569 140.822C134.852 122.057 140.46 76.6169 129.732 25.2336V25C129.725 25.0412 129.718 25.0756 129.711 25.1168C129.704 25.0756 129.697 25.0412 129.69 25V25.2336C119.017 76.3558 124.508 121.596 127.805 140.533C112.059 83.3233 47.4269 68.9211 47.4269 68.9211C79.0161 88.1881 107.705 121.473 121.402 138.747C74.094 105.531 15.8721 134.013 15.8721 134.013C44.9042 130.33 77.9193 134.686 101.015 139.132C101.309 139.207 120.587 144.292 129.869 150.675C138.575 144.684 156.083 139.846 158.455 139.2C181.544 134.762 214.511 130.419 243.495 134.102H243.488Z" fill="#FF5B04"/>
<path d="M243.488 134.102C243.488 134.102 185.41 105.689 138.136 138.713C151.874 121.397 180.488 88.2362 212.002 69.0173C212.002 69.0173 147.219 83.447 131.569 140.822C134.852 122.057 140.46 76.6169 129.732 25.2336V25C129.725 25.0412 129.718 25.0756 129.711 25.1168C129.704 25.0756 129.697 25.0412 129.69 25V25.2336C119.017 76.3558 124.508 121.596 127.805 140.533C112.059 83.3233 47.4269 68.9211 47.4269 68.9211C79.0161 88.1881 107.705 121.473 121.402 138.747C74.094 105.531 15.8721 134.013 15.8721 134.013C44.9042 130.33 77.9193 134.686 101.015 139.132C101.309 139.207 120.587 144.292 129.869 150.675C138.575 144.684 156.083 139.846 158.455 139.2C181.544 134.762 214.511 130.419 243.495 134.102H243.488Z" fill="#FF5B04"/>
<path d="M84.9596 39.1409L84.9116 39.0447C84.9116 39.0447 84.939 39.0722 84.9459 39.086C84.9459 39.0654 84.939 39.0516 84.9322 39.031L84.9802 39.1272C106.232 62.7369 110.4 89.8165 110.4 89.8165L96.6684 62.462L110.372 89.8303C110.372 89.8303 91.2116 70.3846 84.9596 39.1409Z" fill="#FF5B04"/>
<path d="M28.513 103.442C60.9385 92.7162 75.787 110.829 75.787 110.829C75.787 110.829 47.2005 105.751 28.5061 103.47L28.417 103.456C28.417 103.456 28.4444 103.456 28.465 103.449" fill="#FF5B04"/>
</svg>
