<svg width="24" height="24" viewBox="0 0 24 24" fill="none" xmlns="http://www.w3.org/2000/svg">
<path d="M7.875 13.4117C7.875 13.54 7.75059 13.7205 7.5 13.7205C7.24941 13.7205 7.125 13.54 7.125 13.4117C7.125 13.2833 7.24941 13.1028 7.5 13.1028C7.75059 13.1028 7.875 13.2833 7.875 13.4117ZM7.875 17.7793C7.875 17.9077 7.75059 18.0882 7.5 18.0882C7.24941 18.0882 7.125 17.9077 7.125 17.7793C7.125 17.651 7.24941 17.4705 7.5 17.4705C7.75059 17.4705 7.875 17.651 7.875 17.7793ZM16.875 13.4117C16.875 13.5401 16.7506 13.7206 16.5 13.7206C16.2494 13.7206 16.125 13.5401 16.125 13.4117C16.125 13.2834 16.2494 13.1029 16.5 13.1029C16.7506 13.1029 16.875 13.2834 16.875 13.4117ZM16.875 17.7793C16.875 17.9077 16.7506 18.0882 16.5 18.0882C16.2494 18.0882 16.125 17.9077 16.125 17.7793C16.125 17.651 16.2494 17.4705 16.5 17.4705C16.7506 17.4705 16.875 17.651 16.875 17.7793ZM12.375 13.4117C12.375 13.5401 12.2506 13.7206 12 13.7206C11.7494 13.7206 11.625 13.5401 11.625 13.4117C11.625 13.2834 11.7494 13.1029 12 13.1029C12.2506 13.1029 12.375 13.2834 12.375 13.4117ZM12.375 17.7793C12.375 17.9077 12.2506 18.0882 12 18.0882C11.7494 18.0882 11.625 17.9077 11.625 17.7793C11.625 17.651 11.7494 17.4705 12 17.4705C12.2506 17.4705 12.375 17.651 12.375 17.7793Z" fill="#243037" stroke="#243037" stroke-width="1.5"/>
</svg>
