<svg width="18" height="18" viewBox="0 0 18 18" fill="none" xmlns="http://www.w3.org/2000/svg">
<path d="M4.38462 6.46154C4.00226 6.46154 3.69231 6.7715 3.69231 7.15385C3.69231 7.5362 4.00226 7.84615 4.38462 7.84615H13.6154C13.9977 7.84615 14.3077 7.5362 14.3077 7.15385C14.3077 6.7715 13.9977 6.46154 13.6154 6.46154H4.38462Z" fill="#243037"/>
<path d="M5.30769 10.8462C5.81749 10.8462 6.23077 10.4329 6.23077 9.92308C6.23077 9.41328 5.81749 9 5.30769 9C4.79789 9 4.38462 9.41328 4.38462 9.92308C4.38462 10.4329 4.79789 10.8462 5.30769 10.8462Z" fill="#243037"/>
<path d="M6.23077 13.6154C6.23077 14.1252 5.81749 14.5385 5.30769 14.5385C4.79789 14.5385 4.38462 14.1252 4.38462 13.6154C4.38462 13.1056 4.79789 12.6923 5.30769 12.6923C5.81749 12.6923 6.23077 13.1056 6.23077 13.6154Z" fill="#243037"/>
<path d="M12.6923 10.8462C13.2021 10.8462 13.6154 10.4329 13.6154 9.92308C13.6154 9.41328 13.2021 9 12.6923 9C12.1825 9 11.7692 9.41328 11.7692 9.92308C11.7692 10.4329 12.1825 10.8462 12.6923 10.8462Z" fill="#243037"/>
<path d="M13.6154 13.6154C13.6154 14.1252 13.2021 14.5385 12.6923 14.5385C12.1825 14.5385 11.7692 14.1252 11.7692 13.6154C11.7692 13.1056 12.1825 12.6923 12.6923 12.6923C13.2021 12.6923 13.6154 13.1056 13.6154 13.6154Z" fill="#243037"/>
<path d="M9 10.8462C9.5098 10.8462 9.92308 10.4329 9.92308 9.92308C9.92308 9.41328 9.5098 9 9 9C8.4902 9 8.07692 9.41328 8.07692 9.92308C8.07692 10.4329 8.4902 10.8462 9 10.8462Z" fill="#243037"/>
<path d="M9.92308 13.6154C9.92308 14.1252 9.5098 14.5385 9 14.5385C8.4902 14.5385 8.07692 14.1252 8.07692 13.6154C8.07692 13.1056 8.4902 12.6923 9 12.6923C9.5098 12.6923 9.92308 13.1056 9.92308 13.6154Z" fill="#243037"/>
<path fill-rule="evenodd" clip-rule="evenodd" d="M6.57692 0.692308C6.57692 0.309957 6.26697 0 5.88462 0C5.50226 0 5.19231 0.309957 5.19231 0.692308V1.84615H3.46154C1.54978 1.84615 0 3.39594 0 5.30769V14.5385C0 16.4502 1.54978 18 3.46154 18H14.5385C16.4502 18 18 16.4502 18 14.5385V5.30769C18 3.39594 16.4502 1.84615 14.5385 1.84615H12.8077V0.692308C12.8077 0.309957 12.4977 0 12.1154 0C11.733 0 11.4231 0.309957 11.4231 0.692308V1.84615H6.57692V0.692308ZM11.4231 4.38462V3.23077H6.57692V4.38462C6.57692 4.76697 6.26697 5.07692 5.88462 5.07692C5.50226 5.07692 5.19231 4.76697 5.19231 4.38462V3.23077H3.46154C2.31449 3.23077 1.38462 4.16064 1.38462 5.30769V14.5385C1.38462 15.6855 2.31449 16.6154 3.46154 16.6154H14.5385C15.6855 16.6154 16.6154 15.6855 16.6154 14.5385V5.30769C16.6154 4.16064 15.6855 3.23077 14.5385 3.23077H12.8077V4.38462C12.8077 4.76697 12.4977 5.07692 12.1154 5.07692C11.733 5.07692 11.4231 4.76697 11.4231 4.38462Z" fill="#243037"/>
</svg>
