<svg width="86" height="49" viewBox="0 0 86 49" fill="none" xmlns="http://www.w3.org/2000/svg">
<path d="M59.6891 5.94976L59.7069 5.9134C59.7069 5.9134 59.6967 5.92379 59.6942 5.92898C59.6942 5.92119 59.6967 5.91599 59.6993 5.9082L59.6815 5.94456C51.832 14.8688 50.2925 25.1046 50.2925 25.1046L55.3643 14.7649L50.3026 25.1098C50.3026 25.1098 57.3799 17.7596 59.6891 5.94976Z" fill="#FF5B04"/>
<path d="M79.1274 30.3988C67.1506 26.3444 61.666 33.1908 61.666 33.1908C61.666 33.1908 72.2249 31.2714 79.13 30.4092L79.1629 30.404C79.1629 30.404 79.1527 30.404 79.1451 30.4014" fill="#FF5B04"/>
<path d="M85.0354 41.9875C85.0354 41.9875 63.5834 31.2478 46.122 43.7303C51.1964 37.1852 61.7654 24.6507 73.4055 17.3862C73.4055 17.3862 49.4771 22.8404 43.6963 44.5276C44.9092 37.4345 46.9804 20.2587 43.0177 0.836354V0.748047C43.0151 0.763631 43.0126 0.776616 43.0101 0.7922C43.0075 0.776616 43.005 0.763631 43.0025 0.748047V0.836354C39.06 20.1601 41.0882 37.2605 42.3061 44.4186C36.4899 22.7937 12.6172 17.3498 12.6172 17.3498C24.2851 24.6326 34.882 37.2137 39.9412 43.7433C22.4671 31.1881 0.961914 41.9538 0.961914 41.9538C11.6854 40.5616 23.88 42.2083 32.4107 43.8887C32.5196 43.9173 39.6398 45.8393 43.0683 48.2521C46.2841 45.9873 52.7511 44.1588 53.6272 43.9147C62.1553 42.2369 74.3322 40.5954 85.038 41.9875H85.0354Z" fill="#FF5B04"/>
<path d="M26.4796 6.09234L26.4619 6.05598C26.4619 6.05598 26.472 6.06637 26.4746 6.07156C26.4746 6.06377 26.472 6.05857 26.4695 6.05078L26.4872 6.08714C34.3368 15.0114 35.8763 25.2472 35.8763 25.2472L30.8045 14.9075L35.8662 25.2524C35.8662 25.2524 28.7889 17.9021 26.4796 6.09234Z" fill="#FF5B04"/>
<path d="M5.63115 30.3988C17.608 26.3444 23.0926 33.1908 23.0926 33.1908C23.0926 33.1908 12.5337 31.2714 5.62862 30.4092L5.5957 30.404C5.5957 30.404 5.60583 30.404 5.61343 30.4014" fill="#FF5B04"/>
</svg>
