<svg width="24" height="24" viewBox="0 0 24 24" fill="none" xmlns="http://www.w3.org/2000/svg">
<path d="M3.75 5.25C3.75 4.42157 4.42157 3.75 5.25 3.75H9.27632C10.1047 3.75 10.7763 4.42157 10.7763 5.25V12.1184C10.7763 12.9468 10.1047 13.6184 9.27632 13.6184H5.25C4.42157 13.6184 3.75 12.9468 3.75 12.1184V5.25ZM13.2237 5.25C13.2237 4.42157 13.8953 3.75 14.7237 3.75H18.75C19.5784 3.75 20.25 4.42157 20.25 5.25V6.43421C20.25 7.26264 19.5784 7.93421 18.75 7.93421H14.7237C13.8953 7.93421 13.2237 7.26264 13.2237 6.43421V5.25ZM3.75 17.5658C3.75 16.7374 4.42157 16.0658 5.25 16.0658H9.27632C10.1047 16.0658 10.7763 16.7374 10.7763 17.5658V18.75C10.7763 19.5784 10.1047 20.25 9.27632 20.25H5.25C4.42157 20.25 3.75 19.5784 3.75 18.75V17.5658ZM13.2237 11.8816C13.2237 11.0531 13.8953 10.3816 14.7237 10.3816H18.75C19.5784 10.3816 20.25 11.0531 20.25 11.8816V18.75C20.25 19.5784 19.5784 20.25 18.75 20.25H14.7237C13.8953 20.25 13.2237 19.5784 13.2237 18.75V11.8816Z" stroke="white" stroke-width="1.5"/>
</svg>
