<svg width="36" height="36" viewBox="0 0 36 36" fill="none" xmlns="http://www.w3.org/2000/svg">
<rect width="36" height="36" rx="6" fill="#FF5B04"/>
<path d="M9.75 11.25C9.75 10.4216 10.4216 9.75 11.25 9.75H15.2763C16.1047 9.75 16.7763 10.4216 16.7763 11.25V18.1184C16.7763 18.9468 16.1047 19.6184 15.2763 19.6184H11.25C10.4216 19.6184 9.75 18.9468 9.75 18.1184V11.25ZM19.2237 11.25C19.2237 10.4216 19.8953 9.75 20.7237 9.75H24.75C25.5784 9.75 26.25 10.4216 26.25 11.25V12.4342C26.25 13.2626 25.5784 13.9342 24.75 13.9342H20.7237C19.8953 13.9342 19.2237 13.2626 19.2237 12.4342V11.25ZM9.75 23.5658C9.75 22.7374 10.4216 22.0658 11.25 22.0658H15.2763C16.1047 22.0658 16.7763 22.7374 16.7763 23.5658V24.75C16.7763 25.5784 16.1047 26.25 15.2763 26.25H11.25C10.4216 26.25 9.75 25.5784 9.75 24.75V23.5658ZM19.2237 17.8816C19.2237 17.0531 19.8953 16.3816 20.7237 16.3816H24.75C25.5784 16.3816 26.25 17.0531 26.25 17.8816V24.75C26.25 25.5784 25.5784 26.25 24.75 26.25H20.7237C19.8953 26.25 19.2237 25.5784 19.2237 24.75V17.8816Z" stroke="white" stroke-width="1.5"/>
</svg>
