<svg width="18" height="20" viewBox="0 0 18 20" fill="none" xmlns="http://www.w3.org/2000/svg">
<g id="Group 255">
<g id="Union">
<path d="M6.79956 1.5C6.1092 1.5 5.54956 2.05964 5.54956 2.75V3.24204H4.04956V2.75C4.04956 1.23122 5.28078 0 6.79956 0H10.2757C11.7945 0 13.0257 1.23122 13.0257 2.75V3.24204H11.5257V2.75C11.5257 2.05964 10.966 1.5 10.2757 1.5H6.79956Z" fill="#243037"/>
<path d="M7.3938 14.4414L7.3938 9.05566C7.3938 8.64145 7.05801 8.30566 6.6438 8.30566C6.22959 8.30566 5.8938 8.64145 5.8938 9.05566L5.8938 14.4414C5.8938 14.8556 6.22958 15.1914 6.6438 15.1914C7.05801 15.1914 7.3938 14.8556 7.3938 14.4414Z" fill="#243037"/>
<path d="M11.3235 9.05566C11.3235 8.64145 10.9877 8.30566 10.5735 8.30566C10.1593 8.30566 9.82349 8.64145 9.82349 9.05566V14.4414C9.82349 14.8556 10.1593 15.1914 10.5735 15.1914C10.9877 15.1914 11.3235 14.8556 11.3235 14.4414V9.05566Z" fill="#243037"/>
<path fill-rule="evenodd" clip-rule="evenodd" d="M0 4.2085C0 3.79428 0.335786 3.4585 0.75 3.4585H16.4674C16.8816 3.4585 17.2174 3.79428 17.2174 4.2085C17.2174 4.62271 16.8816 4.9585 16.4674 4.9585H16.2349V16.7501C16.2349 18.2689 15.0037 19.5001 13.4849 19.5001H3.73218C2.2134 19.5001 0.982178 18.2689 0.982178 16.7501V4.9585H0.75C0.335786 4.9585 0 4.62271 0 4.2085ZM2.48218 4.9585V16.7501C2.48218 17.4405 3.04182 18.0001 3.73218 18.0001H13.4849C14.1752 18.0001 14.7349 17.4405 14.7349 16.7501V4.9585H2.48218Z" fill="#243037"/>
</g>
</g>
</svg>
