<svg width="25" height="25" viewBox="0 0 25 25" fill="none" xmlns="http://www.w3.org/2000/svg">
<g id="Icons/Ellipse">
<g id="ellipse">
<path d="M7.5 13C7.5 13.8284 6.82843 14.5 6 14.5C5.17157 14.5 4.5 13.8284 4.5 13C4.5 12.1716 5.17157 11.5 6 11.5C6.82843 11.5 7.5 12.1716 7.5 13Z" fill="#243037"/>
<path d="M14.5 13C14.5 13.8284 13.8284 14.5 13 14.5C12.1716 14.5 11.5 13.8284 11.5 13C11.5 12.1716 12.1716 11.5 13 11.5C13.8284 11.5 14.5 12.1716 14.5 13Z" fill="#243037"/>
<path d="M21.5 13C21.5 13.8284 20.8284 14.5 20 14.5C19.1716 14.5 18.5 13.8284 18.5 13C18.5 12.1716 19.1716 11.5 20 11.5C20.8284 11.5 21.5 12.1716 21.5 13Z" fill="#243037"/>
</g>
</g>
</svg>
