<svg width="24" height="24" viewBox="0 0 24 24" fill="none" xmlns="http://www.w3.org/2000/svg">
<path d="M11.4142 5.80662C11.7651 5.75474 12.1271 5.72691 12.5 5.72691C16.9079 5.72691 19.8004 9.61664 20.7721 11.1553C20.8898 11.3415 20.9486 11.4346 20.9815 11.5783C21.0062 11.6861 21.0062 11.8563 20.9814 11.9641C20.9485 12.1078 20.8893 12.2015 20.7708 12.389C20.5119 12.7987 20.1172 13.3746 19.5942 13.9992M7.94433 7.20777C6.07747 8.47417 4.81009 10.2336 4.22869 11.154C4.11055 11.341 4.05148 11.4345 4.01855 11.5781C3.99382 11.686 3.99381 11.8561 4.01853 11.964C4.05144 12.1076 4.11025 12.2007 4.22785 12.3869C5.19959 13.9256 8.09206 17.8153 12.5 17.8153C14.2773 17.8153 15.8083 17.1829 17.0663 16.3272M4.7289 4L20.2711 19.5422M10.6683 9.93943C10.1996 10.4082 9.90963 11.0558 9.90963 11.7711C9.90963 13.2017 11.0694 14.3615 12.5 14.3615C13.2153 14.3615 13.8629 14.0715 14.3317 13.6028" stroke="#243037" stroke-width="1.5" stroke-linecap="round" stroke-linejoin="round"/>
</svg>
