<svg width="24" height="24" viewBox="0 0 24 24" fill="none" xmlns="http://www.w3.org/2000/svg">
<path d="M4.22784 12.66C4.11025 12.4738 4.05146 12.3807 4.01854 12.2371C3.99382 12.1292 3.99382 11.9591 4.01854 11.8513C4.05146 11.7077 4.11025 11.6146 4.22784 11.4284C5.19958 9.88973 8.09205 6 12.5 6C16.9079 6 19.8004 9.88973 20.7722 11.4284C20.8897 11.6146 20.9485 11.7077 20.9815 11.8513C21.0062 11.9591 21.0062 12.1292 20.9815 12.2371C20.9485 12.3807 20.8897 12.4738 20.7722 12.66C19.8004 14.1987 16.9079 18.0884 12.5 18.0884C8.09205 18.0884 5.19958 14.1987 4.22784 12.66Z" stroke="#243037" stroke-width="1.5" stroke-linecap="round" stroke-linejoin="round"/>
<path d="M12.5 14.6346C13.9306 14.6346 15.0904 13.4748 15.0904 12.0442C15.0904 10.6136 13.9306 9.45383 12.5 9.45383C11.0694 9.45383 9.90963 10.6136 9.90963 12.0442C9.90963 13.4748 11.0694 14.6346 12.5 14.6346Z" stroke="#243037" stroke-width="1.5" stroke-linecap="round" stroke-linejoin="round"/>
</svg>
