<svg width="24" height="24" viewBox="0 0 24 24" fill="none" xmlns="http://www.w3.org/2000/svg">
<path d="M3 6.73974C3 6.33119 3.34538 6 3.77143 6H20.2286C20.6546 6 21 6.33119 21 6.73974C21 7.14828 20.6546 7.47947 20.2286 7.47947H3.77143C3.34538 7.47947 3 7.14828 3 6.73974Z" fill="#243037"/>
<path d="M3 12C3 11.5915 3.34538 11.2603 3.77143 11.2603H20.2286C20.6546 11.2603 21 11.5915 21 12C21 12.4085 20.6546 12.7397 20.2286 12.7397H3.77143C3.34538 12.7397 3 12.4085 3 12Z" fill="#243037"/>
<path d="M3.77143 16.5205C3.34538 16.5205 3 16.8517 3 17.2603C3 17.6688 3.34538 18 3.77143 18H20.2286C20.6546 18 21 17.6688 21 17.2603C21 16.8517 20.6546 16.5205 20.2286 16.5205H3.77143Z" fill="#243037"/>
</svg>
