<svg width="20" height="21" viewBox="0 0 20 21" fill="none" xmlns="http://www.w3.org/2000/svg">
<path d="M10 9.3C10.2919 9.3 10.5286 9.53665 10.5286 9.82857V14.9714C10.5286 15.2634 10.2919 15.5 10 15.5C9.70808 15.5 9.47143 15.2633 9.47143 14.9714V9.82857C9.47143 9.53665 9.70808 9.3 10 9.3ZM10.5286 6.02857C10.5286 6.32049 10.2919 6.55714 10 6.55714C9.70808 6.55714 9.47143 6.32049 9.47143 6.02857C9.47143 5.73665 9.70808 5.5 10 5.5C10.2919 5.5 10.5286 5.73665 10.5286 6.02857ZM1.5 10.5C1.5 5.80558 5.30558 2 10 2C14.6944 2 18.5 5.80558 18.5 10.5C18.5 15.1944 14.6944 19 10 19C5.30558 19 1.5 15.1944 1.5 10.5ZM10 2.54286C5.60539 2.54286 2.04286 6.10539 2.04286 10.5C2.04286 14.8946 5.60539 18.4571 10 18.4571C14.3946 18.4571 17.9571 14.8946 17.9571 10.5C17.9571 6.10539 14.3946 2.54286 10 2.54286Z" fill="#243037" stroke="#243037"/>
</svg>
