<svg width="24" height="25" viewBox="0 0 24 25" fill="none" xmlns="http://www.w3.org/2000/svg">
<path d="M13.1507 13.4315H11.0685V15.5137H13.1507V13.4315Z" fill="white"/>
<path d="M8.9863 16.5548H11.0685V18.637H8.9863V16.5548Z" fill="white"/>
<path d="M15.2329 16.5548H13.1507V18.637H15.2329V16.5548Z" fill="white"/>
<path fill-rule="evenodd" clip-rule="evenodd" d="M10.947 2.86439C11.5948 2.37854 12.4855 2.37854 13.1333 2.86439L20.3515 8.27812C20.8103 8.62219 21.0803 9.16219 21.0803 9.73565V19.6781C21.0803 20.6843 20.2646 21.5 19.2584 21.5H4.82192C3.8157 21.5 3 20.6843 3 19.6781V9.73565C3 9.16219 3.26999 8.6222 3.72876 8.27812L10.947 2.86439ZM12.1963 4.1137C12.1038 4.04429 11.9765 4.04429 11.884 4.1137L4.66575 9.52743C4.60022 9.57658 4.56164 9.65372 4.56164 9.73565V19.6781C4.56164 19.8218 4.67817 19.9384 4.82192 19.9384H7.20881C7.18004 19.8569 7.16438 19.7693 7.16438 19.6781V12.3885C7.16438 11.3805 7.98193 10.5685 8.9863 10.5685H15.2329C16.2391 10.5685 17.0548 11.3842 17.0548 12.3904V19.6781C17.0548 19.7693 17.0391 19.8569 17.0104 19.9384H19.2584C19.4021 19.9384 19.5187 19.8218 19.5187 19.6781V9.73565C19.5187 9.65372 19.4801 9.57658 19.4145 9.52743L12.1963 4.1137ZM15.5376 19.9384H8.6816C8.71037 19.8569 8.72603 19.7693 8.72603 19.6781V12.3885C8.72603 12.2466 8.84071 12.1301 8.9863 12.1301H15.2329C15.3766 12.1301 15.4932 12.2467 15.4932 12.3904V19.6781C15.4932 19.7693 15.5088 19.8569 15.5376 19.9384Z" fill="white"/>
</svg>
