<svg width="36" height="36" viewBox="0 0 36 36" fill="none" xmlns="http://www.w3.org/2000/svg">
<rect width="36" height="36" rx="6" fill="#FF5B04"/>
<path d="M19.1507 18.9315H17.0685V21.0137H19.1507V18.9315Z" fill="white"/>
<path d="M14.9863 22.0548H17.0685V24.137H14.9863V22.0548Z" fill="white"/>
<path d="M21.2329 22.0548H19.1507V24.137H21.2329V22.0548Z" fill="white"/>
<path fill-rule="evenodd" clip-rule="evenodd" d="M16.947 8.36439C17.5948 7.87854 18.4855 7.87854 19.1333 8.36439L26.3515 13.7781C26.8103 14.1222 27.0803 14.6622 27.0803 15.2356V25.1781C27.0803 26.1843 26.2646 27 25.2584 27H10.8219C9.8157 27 9 26.1843 9 25.1781V15.2356C9 14.6622 9.26999 14.1222 9.72876 13.7781L16.947 8.36439ZM18.1963 9.6137C18.1038 9.54429 17.9765 9.54429 17.884 9.6137L10.6658 15.0274C10.6002 15.0766 10.5616 15.1537 10.5616 15.2356V25.1781C10.5616 25.3218 10.6782 25.4384 10.8219 25.4384H13.2088C13.18 25.3569 13.1644 25.2693 13.1644 25.1781V17.8885C13.1644 16.8805 13.9819 16.0685 14.9863 16.0685H21.2329C22.2391 16.0685 23.0548 16.8842 23.0548 17.8904V25.1781C23.0548 25.2693 23.0391 25.3569 23.0104 25.4384H25.2584C25.4021 25.4384 25.5187 25.3218 25.5187 25.1781V15.2356C25.5187 15.1537 25.4801 15.0766 25.4145 15.0274L18.1963 9.6137ZM21.5376 25.4384H14.6816C14.7104 25.3569 14.726 25.2693 14.726 25.1781V17.8885C14.726 17.7466 14.8407 17.6301 14.9863 17.6301H21.2329C21.3766 17.6301 21.4932 17.7467 21.4932 17.8904V25.1781C21.4932 25.2693 21.5088 25.3569 21.5376 25.4384Z" fill="white"/>
</svg>
