<svg width="24" height="24" viewBox="0 0 24 24" fill="none" xmlns="http://www.w3.org/2000/svg">
<path d="M11.0001 7.80001H11.5001C12.5001 7.80001 13.0001 8.39768 13.0001 9.00001M11.0001 7.80001C9.75444 7.80001 9.00009 8.33334 9.00009 9.40001C9.00009 10.1755 9.00009 11 11.0001 11C13.0001 11 13.0001 12.0667 13.0001 12.6C13.0001 13.4837 12.5001 14.2 11.0001 14.2M11.0001 7.80001L11.0001 6.99988M11.0001 14.2H10.5001C9.67166 14.2 9.00009 13.6627 9.00009 13M11.0001 14.2L11.0001 14.9999M21.6667 15C21.6667 16.3333 21 18.3333 17.6667 21M17.6667 21V18.3333M17.6667 21H21M19 11C19 15.4183 15.4183 19 11 19C6.58172 19 3 15.4183 3 11C3 6.58172 6.58172 3 11 3C15.4183 3 19 6.58172 19 11Z" stroke="white" stroke-width="1.5" stroke-linecap="round"/>
</svg>
