<svg width="36" height="36" viewBox="0 0 36 36" fill="none" xmlns="http://www.w3.org/2000/svg">
<rect width="36" height="36" rx="6" fill="#FF5B04"/>
<path d="M17.0001 13.8H17.5001C18.5001 13.8 19.0001 14.3977 19.0001 15M17.0001 13.8C15.7544 13.8 15.0001 14.3333 15.0001 15.4C15.0001 16.1755 15.0001 17 17.0001 17C19.0001 17 19.0001 18.0667 19.0001 18.6C19.0001 19.4837 18.5001 20.2 17.0001 20.2M17.0001 13.8L17.0001 12.9999M17.0001 20.2H16.5001C15.6717 20.2 15.0001 19.6627 15.0001 19M17.0001 20.2L17.0001 20.9999M27.6667 21C27.6667 22.3333 27 24.3333 23.6667 27M23.6667 27V24.3333M23.6667 27H27M25 17C25 21.4183 21.4183 25 17 25C12.5817 25 9 21.4183 9 17C9 12.5817 12.5817 9 17 9C21.4183 9 25 12.5817 25 17Z" stroke="white" stroke-width="1.5" stroke-linecap="round"/>
</svg>
