<svg width="36" height="36" viewBox="0 0 36 36" fill="none" xmlns="http://www.w3.org/2000/svg">
<rect width="36" height="36" rx="6" fill="#FF5B04"/>
<path d="M16.9557 15.8961C17.2923 15.8961 17.5656 16.167 17.5696 16.5026C17.8814 16.566 18.148 16.7206 18.3476 16.9448C18.6038 17.2327 18.7183 17.5992 18.7183 17.9458C18.7183 18.2849 18.4434 18.5598 18.1043 18.5598C17.7652 18.5598 17.4904 18.2849 17.4904 17.9458C17.4904 17.8601 17.4613 17.7959 17.4304 17.7612C17.4159 17.745 17.3983 17.7314 17.3743 17.7209C17.3501 17.7104 17.3089 17.6984 17.2429 17.6984H16.9558C16.7028 17.6984 16.5894 17.7651 16.5403 17.8126C16.4946 17.8568 16.4212 17.9648 16.4212 18.233C16.4212 18.3803 16.4222 18.4797 16.4337 18.5656C16.4446 18.6468 16.4604 18.6735 16.4632 18.6778C16.4632 18.6778 16.4651 18.6806 16.4691 18.6838C16.4736 18.6874 16.4877 18.6975 16.5185 18.7098C16.5843 18.7359 16.7161 18.7675 16.9558 18.7675C17.6796 18.7675 18.2024 19.0217 18.4872 19.4963C18.7202 19.8847 18.7189 20.3209 18.7183 20.5061L18.7183 20.53C18.7183 20.9274 18.6298 21.382 18.3178 21.7434C18.1192 21.9735 17.8642 22.1268 17.5697 22.2116V22.2527C17.5697 22.5918 17.2948 22.8667 16.9557 22.8667C16.6178 22.8667 16.3437 22.5937 16.3418 22.2562C15.6843 22.1075 15.1933 21.5197 15.1933 20.8172C15.1933 20.4781 15.4682 20.2032 15.8072 20.2032C16.1463 20.2032 16.4212 20.4781 16.4212 20.8172C16.4212 20.9538 16.532 21.0646 16.6686 21.0646H16.944L16.9557 21.0645L16.9657 21.0646C17.2628 21.0628 17.3564 20.978 17.3884 20.9409C17.4352 20.8867 17.4904 20.767 17.4904 20.53C17.4904 20.316 17.4777 20.2004 17.4343 20.1281C17.4223 20.1081 17.4037 20.0845 17.3534 20.0603C17.2959 20.0326 17.1771 19.9955 16.9558 19.9955C16.2938 19.9955 15.7482 19.8237 15.4384 19.3542C15.1898 18.9775 15.192 18.5199 15.1931 18.2767L15.1933 18.233C15.1933 17.7355 15.3364 17.2691 15.6862 16.9305C15.8764 16.7463 16.1012 16.6257 16.3418 16.5543V16.5101C16.3418 16.171 16.6167 15.8961 16.9557 15.8961Z" fill="white"/>
<path d="M9.45069 19.9557C9.45069 19.6167 9.72556 19.3418 10.0646 19.3418H12.936C13.2751 19.3418 13.5499 19.6167 13.5499 19.9557C13.5499 20.2948 13.2751 20.5697 12.936 20.5697H10.0646C9.72556 20.5697 9.45069 20.2948 9.45069 19.9557Z" fill="white"/>
<path d="M21.55 19.3418C21.2109 19.3418 20.9361 19.6167 20.9361 19.9557C20.9361 20.2948 21.2109 20.5697 21.55 20.5697H24.4214C24.7604 20.5697 25.0353 20.2948 25.0353 19.9557C25.0353 19.6167 24.7604 19.3418 24.4214 19.3418H21.55Z" fill="white"/>
<path fill-rule="evenodd" clip-rule="evenodd" d="M9.04667 11.7907C9.04667 10.8017 9.84839 10 10.8374 10H27.2093C28.1983 10 29 10.8017 29 11.7907V17.9302C29 18.9191 28.1983 19.7209 27.2093 19.7209H26.9116V23.5267C26.9116 24.5157 26.1098 25.3174 25.1209 25.3174H8.7907C7.80172 25.3174 7 24.5157 7 23.5267V15.2363C7 14.2474 7.80172 13.4456 8.79069 13.4456H9.04667V11.7907ZM27.2093 18.186H26.9116V15.2363C26.9116 14.2474 26.1098 13.4456 25.1209 13.4456H10.5815V11.7907C10.5815 11.6494 10.6961 11.5349 10.8374 11.5349H27.2093C27.3506 11.5349 27.4651 11.6494 27.4651 11.7907V17.9302C27.4651 18.0714 27.3506 18.186 27.2093 18.186ZM8.79069 14.9805C8.64941 14.9805 8.53488 15.0951 8.53488 15.2363V23.5267C8.53488 23.668 8.64941 23.7825 8.7907 23.7825H25.1209C25.2622 23.7825 25.3767 23.668 25.3767 23.5267V15.2363C25.3767 15.0951 25.2622 14.9805 25.1209 14.9805H8.79069Z" fill="white"/>
</svg>
