<svg width="24" height="24" viewBox="0 0 24 24" fill="none" xmlns="http://www.w3.org/2000/svg">
<path d="M10.9557 9.89614C11.2923 9.89614 11.5656 10.167 11.5696 10.5026C11.8814 10.566 12.148 10.7206 12.3476 10.9448C12.6038 11.2327 12.7183 11.5992 12.7183 11.9458C12.7183 12.2849 12.4434 12.5598 12.1043 12.5598C11.7652 12.5598 11.4904 12.2849 11.4904 11.9458C11.4904 11.8601 11.4613 11.7959 11.4304 11.7612C11.4159 11.745 11.3983 11.7314 11.3743 11.7209C11.3501 11.7104 11.3089 11.6984 11.2429 11.6984H10.9558C10.7028 11.6984 10.5894 11.7651 10.5403 11.8126C10.4946 11.8568 10.4212 11.9648 10.4212 12.233C10.4212 12.3803 10.4222 12.4797 10.4337 12.5656C10.4446 12.6468 10.4604 12.6735 10.4632 12.6778C10.4632 12.6778 10.4651 12.6806 10.4691 12.6838C10.4736 12.6874 10.4877 12.6975 10.5185 12.7098C10.5843 12.7359 10.7161 12.7675 10.9558 12.7675C11.6796 12.7675 12.2024 13.0217 12.4872 13.4963C12.7202 13.8847 12.7189 14.3209 12.7183 14.5061L12.7183 14.53C12.7183 14.9274 12.6298 15.382 12.3178 15.7434C12.1192 15.9735 11.8642 16.1268 11.5697 16.2116V16.2527C11.5697 16.5918 11.2948 16.8667 10.9557 16.8667C10.6178 16.8667 10.3437 16.5937 10.3418 16.2562C9.68427 16.1075 9.19328 15.5197 9.19328 14.8172C9.19328 14.4781 9.46816 14.2032 9.80723 14.2032C10.1463 14.2032 10.4212 14.4781 10.4212 14.8172C10.4212 14.9538 10.532 15.0646 10.6686 15.0646H10.944L10.9557 15.0645L10.9657 15.0646C11.2628 15.0628 11.3564 14.978 11.3884 14.9409C11.4352 14.8867 11.4904 14.767 11.4904 14.53C11.4904 14.316 11.4777 14.2004 11.4343 14.1281C11.4223 14.1081 11.4037 14.0845 11.3534 14.0603C11.2959 14.0326 11.1771 13.9955 10.9558 13.9955C10.2938 13.9955 9.74823 13.8237 9.43838 13.3542C9.18982 12.9775 9.19199 12.5199 9.19314 12.2767L9.19328 12.233C9.19328 11.7355 9.33642 11.2691 9.6862 10.9305C9.8764 10.7463 10.1012 10.6257 10.3418 10.5543V10.5101C10.3418 10.171 10.6167 9.89614 10.9557 9.89614Z" fill="white"/>
<path d="M3.45069 13.9557C3.45069 13.6167 3.72556 13.3418 4.06464 13.3418H6.936C7.27507 13.3418 7.54995 13.6167 7.54995 13.9557C7.54995 14.2948 7.27507 14.5697 6.936 14.5697H4.06464C3.72556 14.5697 3.45069 14.2948 3.45069 13.9557Z" fill="white"/>
<path d="M15.55 13.3418C15.2109 13.3418 14.9361 13.6167 14.9361 13.9557C14.9361 14.2948 15.2109 14.5697 15.55 14.5697H18.4214C18.7604 14.5697 19.0353 14.2948 19.0353 13.9557C19.0353 13.6167 18.7604 13.3418 18.4214 13.3418H15.55Z" fill="white"/>
<path fill-rule="evenodd" clip-rule="evenodd" d="M3.04667 5.79069C3.04667 4.80172 3.84839 4 4.83736 4H21.2093C22.1983 4 23 4.80172 23 5.79069V11.9302C23 12.9191 22.1983 13.7209 21.2093 13.7209H20.9116V17.5267C20.9116 18.5157 20.1098 19.3174 19.1209 19.3174H2.7907C1.80172 19.3174 1 18.5157 1 17.5267V9.23634C1 8.24736 1.80172 7.44565 2.79069 7.44565H3.04667V5.79069ZM21.2093 12.186H20.9116V9.23634C20.9116 8.24736 20.1098 7.44565 19.1209 7.44565H4.58155V5.79069C4.58155 5.64941 4.69608 5.53488 4.83736 5.53488H21.2093C21.3506 5.53488 21.4651 5.64941 21.4651 5.79069V11.9302C21.4651 12.0714 21.3506 12.186 21.2093 12.186ZM2.79069 8.98053C2.64941 8.98053 2.53488 9.09506 2.53488 9.23634V17.5267C2.53488 17.668 2.64941 17.7825 2.7907 17.7825H19.1209C19.2622 17.7825 19.3767 17.668 19.3767 17.5267V9.23634C19.3767 9.09506 19.2622 8.98053 19.1209 8.98053H2.79069Z" fill="white"/>
</svg>
