<svg width="24" height="24" viewBox="0 0 24 24" fill="none" xmlns="http://www.w3.org/2000/svg">
<path d="M10.56 3.85166C10.6334 3.36214 11.0539 3 11.5489 3H13.0666C13.5616 3 13.9821 3.36214 14.0555 3.85166L14.2958 5.45365C14.3509 5.8207 14.6076 6.12105 14.9446 6.27657C15.1815 6.38587 15.4104 6.50943 15.6302 6.64616C15.9473 6.84336 16.3422 6.89172 16.6801 6.7328L18.1001 6.06494C18.548 5.85427 19.0826 6.003 19.3574 6.41472L20.1999 7.67702C20.4747 8.08874 20.4069 8.63954 20.0405 8.97236L18.8598 10.0449C18.5863 10.2933 18.4786 10.6715 18.5346 11.0367C18.5828 11.3508 18.6078 11.6724 18.6078 11.9999C18.6078 12.1949 18.5989 12.3879 18.5816 12.5784C18.548 12.9476 18.6798 13.3196 18.9699 13.5505L20.2384 14.5607C20.6256 14.869 20.729 15.4143 20.4815 15.843L19.7227 17.1573C19.4752 17.5859 18.9513 17.769 18.4907 17.5879L16.9813 16.9942C16.6358 16.8584 16.2472 16.9306 15.9442 17.1451C15.631 17.3669 15.2966 17.5608 14.9447 17.7232C14.6077 17.8787 14.3509 18.179 14.2959 18.5461L14.0556 20.1483C13.9821 20.6379 13.5616 21 13.0666 21H11.549C11.054 21 10.6335 20.6379 10.5601 20.1483L10.3197 18.5461C10.2647 18.179 10.0079 17.8787 9.67092 17.7232C9.4535 17.6228 9.24277 17.5105 9.03959 17.3869C8.72398 17.1951 8.33363 17.1495 7.9994 17.3067L6.48529 18.0188C6.03736 18.2295 5.50271 18.0808 5.22792 17.6691L4.38544 16.4067C4.11065 15.995 4.17842 15.4442 4.54482 15.1114L5.7638 14.0041C6.03932 13.7539 6.1464 13.3722 6.08749 13.0047C6.03505 12.6775 6.0078 12.3419 6.0078 11.9999C6.0078 11.8049 6.01666 11.612 6.03399 11.4216C6.06759 11.0524 5.93573 10.6805 5.64573 10.4495L4.37713 9.43932C3.98991 9.13097 3.88654 8.58573 4.13404 8.15705L4.89285 6.84275C5.14035 6.41407 5.66423 6.23096 6.12488 6.41213L7.63412 7.0057C7.97962 7.14158 8.36823 7.06937 8.67122 6.85482C8.9845 6.63299 9.31893 6.43905 9.67089 6.27662C10.0079 6.12109 10.2646 5.82075 10.3197 5.45371L10.56 3.85166Z" stroke="#243037" stroke-width="1.5"/>
</svg>
