<svg width="24" height="24" viewBox="0 0 24 24" fill="none" xmlns="http://www.w3.org/2000/svg">
<path d="M9.67089 6.27662L9.35662 5.59564L9.67089 6.27662ZM10.3197 5.45371L9.57799 5.34245L9.57799 5.34245L10.3197 5.45371ZM4.37713 9.43932L3.90993 10.026L3.90993 10.026L4.37713 9.43932ZM4.13404 8.15705L4.78356 8.53205L4.78356 8.53205L4.13404 8.15705ZM6.03399 11.4216L6.7809 11.4896L6.03399 11.4216ZM5.64573 10.4495L6.11293 9.86282L6.11293 9.86282L5.64573 10.4495ZM5.7638 14.0041L6.26808 14.5593L6.26808 14.5593L5.7638 14.0041ZM6.08749 13.0047L6.82804 12.886L6.08749 13.0047ZM4.38544 16.4067L5.00926 15.9904L5.00926 15.9904L4.38544 16.4067ZM4.54482 15.1114L4.04054 14.5562L4.04054 14.5562L4.54482 15.1114ZM6.48529 18.0188L6.80449 18.6975L6.80449 18.6975L6.48529 18.0188ZM5.22792 17.6691L4.6041 18.0854L4.6041 18.0854L5.22792 17.6691ZM9.03959 17.3869L8.64996 18.0278L9.03959 17.3869ZM7.9994 17.3067L7.68019 16.628L7.68019 16.628L7.9994 17.3067ZM10.3197 18.5461L11.0614 18.4348L11.0614 18.4348L10.3197 18.5461ZM9.67092 17.7232L9.35665 18.4042L9.67092 17.7232ZM10.5601 20.1483L9.81835 20.2596L9.81835 20.2596L10.5601 20.1483ZM14.0556 20.1483L13.3139 20.0371L13.3139 20.0371L14.0556 20.1483ZM14.9447 17.7232L14.6304 17.0422L14.9447 17.7232ZM14.2959 18.5461L15.0376 18.6573L15.0376 18.6573L14.2959 18.5461ZM19.7227 17.1573L19.0732 16.7823L19.0732 16.7823L19.7227 17.1573ZM18.4907 17.5879L18.7652 16.8899L18.7652 16.8899L18.4907 17.5879ZM20.2384 14.5607L19.7712 15.1474L19.7712 15.1474L20.2384 14.5607ZM20.4815 15.843L21.131 16.218L21.131 16.218L20.4815 15.843ZM18.5816 12.5784L19.3285 12.6464L18.5816 12.5784ZM18.9699 13.5505L19.4371 12.9638L19.4371 12.9638L18.9699 13.5505ZM18.8598 10.0449L18.3555 9.48973L18.3555 9.48973L18.8598 10.0449ZM18.5346 11.0367L17.7933 11.1505L18.5346 11.0367ZM20.1999 7.67702L19.5761 8.09337L19.5761 8.09337L20.1999 7.67702ZM20.0405 8.97236L20.5448 9.52752L20.5448 9.52752L20.0405 8.97236ZM18.1001 6.06494L18.4193 6.74362L18.4193 6.74362L18.1001 6.06494ZM19.3574 6.41472L19.9812 5.99837L19.9812 5.99837L19.3574 6.41472ZM15.6302 6.64616L15.2341 7.28305L15.6302 6.64616ZM16.6801 6.7328L16.3609 6.05412L16.3609 6.05412L16.6801 6.7328ZM14.2958 5.45365L15.0375 5.3424L15.0375 5.3424L14.2958 5.45365ZM14.9446 6.27657L15.2589 5.59559L14.9446 6.27657ZM7.63412 7.0057L7.35962 7.70366L7.63412 7.0057ZM8.67122 6.85482L9.10464 7.46691L9.10464 7.46691L8.67122 6.85482ZM10.56 3.85166L11.3017 3.96292L11.3017 3.96291L10.56 3.85166ZM16.9813 16.9942L16.7068 17.6922L16.7068 17.6922L16.9813 16.9942ZM15.9442 17.1451L15.5108 16.533L15.5108 16.533L15.9442 17.1451ZM4.89285 6.84275L4.24333 6.46775L4.24333 6.46775L4.89285 6.84275ZM6.12488 6.41213L6.39938 5.71417L6.39938 5.71417L6.12488 6.41213ZM14.0555 3.85166L13.3138 3.96291L13.3138 3.96291L14.0555 3.85166ZM13.0666 2.25H11.5489V3.75H13.0666V2.25ZM15.0375 5.3424L14.7972 3.7404L13.3138 3.96291L13.5541 5.56491L15.0375 5.3424ZM14.6304 6.95756C14.8389 7.05377 15.0404 7.16259 15.2341 7.28305L16.0263 6.00928C15.7803 5.85628 15.5241 5.71796 15.2589 5.59559L14.6304 6.95756ZM17.7809 5.38626L16.3609 6.05412L16.9993 7.41148L18.4193 6.74362L17.7809 5.38626ZM20.8237 7.26067L19.9812 5.99837L18.7336 6.83107L19.5761 8.09337L20.8237 7.26067ZM19.3641 10.6001L20.5448 9.52752L19.5362 8.41721L18.3555 9.48973L19.3641 10.6001ZM17.7933 11.1505C17.8357 11.427 17.8578 11.7106 17.8578 11.9999H19.3578C19.3578 11.6342 19.3299 11.2745 19.276 10.923L17.7933 11.1505ZM17.8578 11.9999C17.8578 12.1722 17.85 12.3425 17.8347 12.5104L19.3285 12.6464C19.3479 12.4333 19.3578 12.2177 19.3578 11.9999H17.8578ZM20.7056 13.974L19.4371 12.9638L18.5027 14.1372L19.7712 15.1474L20.7056 13.974ZM20.3722 17.5323L21.131 16.218L19.832 15.468L19.0732 16.7823L20.3722 17.5323ZM16.7068 17.6922L18.2162 18.2858L18.7652 16.8899L17.2558 16.2963L16.7068 17.6922ZM15.5108 16.533C15.2348 16.7284 14.9402 16.8992 14.6304 17.0422L15.259 18.4042C15.653 18.2223 16.0272 18.0053 16.3776 17.7572L15.5108 16.533ZM14.7973 20.2596L15.0376 18.6573L13.5542 18.4348L13.3139 20.0371L14.7973 20.2596ZM11.549 21.75H13.0666V20.25H11.549V21.75ZM9.57802 18.6573L9.81835 20.2596L11.3018 20.0371L11.0614 18.4348L9.57802 18.6573ZM9.98518 17.0422C9.79378 16.9539 9.60821 16.8549 9.42921 16.7461L8.64996 18.0278C8.87734 18.166 9.11322 18.2918 9.35665 18.4042L9.98518 17.0422ZM6.80449 18.6975L8.3186 17.9854L7.68019 16.628L6.16608 17.3401L6.80449 18.6975ZM3.76161 16.8231L4.6041 18.0854L5.85174 17.2527L5.00926 15.9904L3.76161 16.8231ZM5.25952 13.449L4.04054 14.5562L5.0491 15.6666L6.26808 14.5593L5.25952 13.449ZM6.82804 12.886C6.78187 12.5979 6.7578 12.302 6.7578 11.9999H5.2578C5.2578 12.3818 5.28823 12.7571 5.34694 13.1234L6.82804 12.886ZM6.7578 11.9999C6.7578 11.8277 6.76563 11.6574 6.7809 11.4896L5.28708 11.3536C5.26769 11.5666 5.2578 11.7822 5.2578 11.9999H6.7578ZM3.90993 10.026L5.17852 11.0362L6.11293 9.86282L4.84433 8.85262L3.90993 10.026ZM4.24333 6.46775L3.48452 7.78205L4.78356 8.53205L5.54237 7.21775L4.24333 6.46775ZM7.90862 6.30774L6.39938 5.71417L5.85038 7.11009L7.35962 7.70366L7.90862 6.30774ZM9.10464 7.46691C9.38073 7.2714 9.67532 7.10059 9.98516 6.9576L9.35662 5.59564C8.96254 5.7775 8.58827 5.99457 8.2378 6.24274L9.10464 7.46691ZM9.8183 3.7404L9.57799 5.34245L11.0614 5.56496L11.3017 3.96292L9.8183 3.7404ZM9.98516 6.9576C10.5144 6.71337 10.9632 6.21965 11.0614 5.56496L9.57799 5.34245C9.56608 5.42185 9.5014 5.52882 9.35662 5.59564L9.98516 6.9576ZM4.84433 8.85262C4.74752 8.77553 4.72168 8.63922 4.78356 8.53205L3.48452 7.78205C3.0514 8.53224 3.23229 9.48641 3.90993 10.026L4.84433 8.85262ZM6.7809 11.4896C6.83371 10.9093 6.63011 10.2747 6.11293 9.86282L5.17852 11.0362C5.24135 11.0863 5.30147 11.1955 5.28708 11.3536L6.7809 11.4896ZM6.26808 14.5593C6.75952 14.1129 6.92055 13.4632 6.82804 12.886L5.34694 13.1234C5.37225 13.2812 5.31913 13.3948 5.25952 13.449L6.26808 14.5593ZM5.00926 15.9904C4.94056 15.8875 4.9575 15.7498 5.0491 15.6666L4.04054 14.5562C3.39934 15.1387 3.28074 16.1026 3.76161 16.8231L5.00926 15.9904ZM6.16608 17.3401C6.0541 17.3928 5.92044 17.3556 5.85174 17.2527L4.6041 18.0854C5.08498 18.8059 6.02062 19.0662 6.80449 18.6975L6.16608 17.3401ZM9.42921 16.7461C8.93306 16.4444 8.27629 16.3477 7.68019 16.628L8.3186 17.9854C8.39097 17.9513 8.5149 17.9457 8.64996 18.0278L9.42921 16.7461ZM11.0614 18.4348C10.9632 17.7801 10.5144 17.2864 9.98518 17.0422L9.35665 18.4042C9.50143 18.471 9.56611 18.5779 9.57802 18.6573L11.0614 18.4348ZM11.549 20.25C11.4252 20.25 11.3201 20.1595 11.3018 20.0371L9.81835 20.2596C9.94685 21.1163 10.6827 21.75 11.549 21.75V20.25ZM13.3139 20.0371C13.2955 20.1595 13.1904 20.25 13.0666 20.25V21.75C13.9329 21.75 14.6688 21.1163 14.7973 20.2596L13.3139 20.0371ZM14.6304 17.0422C14.1012 17.2864 13.6524 17.7801 13.5542 18.4348L15.0376 18.6573C15.0495 18.5779 15.1142 18.471 15.259 18.4042L14.6304 17.0422ZM19.0732 16.7823C19.0113 16.8894 18.8803 16.9352 18.7652 16.8899L18.2162 18.2858C19.0223 18.6029 19.9391 18.2824 20.3722 17.5323L19.0732 16.7823ZM19.7712 15.1474C19.868 15.2245 19.8939 15.3608 19.832 15.468L21.131 16.218C21.5642 15.4678 21.3833 14.5136 20.7056 13.974L19.7712 15.1474ZM17.8347 12.5104C17.7819 13.0907 17.9855 13.7254 18.5027 14.1372L19.4371 12.9638C19.3742 12.9138 19.3141 12.8045 19.3285 12.6464L17.8347 12.5104ZM18.3555 9.48973C17.8677 9.93285 17.7053 10.5767 17.7933 11.1505L19.276 10.923C19.2519 10.7663 19.3048 10.6538 19.3641 10.6001L18.3555 9.48973ZM19.5761 8.09337C19.6448 8.1963 19.6278 8.334 19.5362 8.41721L20.5448 9.52752C21.186 8.94508 21.3046 7.98118 20.8237 7.26067L19.5761 8.09337ZM18.4193 6.74362C18.5312 6.69095 18.6649 6.72814 18.7336 6.83107L19.9812 5.99837C19.5004 5.27786 18.5647 5.01758 17.7809 5.38626L18.4193 6.74362ZM15.2341 7.28305C15.7325 7.59294 16.3966 7.69494 16.9993 7.41148L16.3609 6.05412C16.2878 6.0885 16.1622 6.09378 16.0263 6.00928L15.2341 7.28305ZM13.5541 5.56491C13.6523 6.21961 14.1011 6.71334 14.6304 6.95756L15.2589 5.59559C15.1141 5.52877 15.0494 5.42179 15.0375 5.3424L13.5541 5.56491ZM7.35962 7.70366C7.9758 7.946 8.62827 7.80422 9.10464 7.46691L8.2378 6.24274C8.10819 6.33451 7.98343 6.33716 7.90862 6.30774L7.35962 7.70366ZM11.5489 2.25C10.6827 2.25 9.9468 2.88374 9.8183 3.7404L11.3017 3.96291C11.3201 3.84054 11.4252 3.75 11.5489 3.75V2.25ZM17.2558 16.2963C16.6396 16.0539 15.9872 16.1957 15.5108 16.533L16.3776 17.7572C16.5072 17.6654 16.632 17.6628 16.7068 17.6922L17.2558 16.2963ZM5.54237 7.21775C5.60424 7.11058 5.73521 7.0648 5.85038 7.11009L6.39938 5.71417C5.59324 5.39712 4.67645 5.71756 4.24333 6.46775L5.54237 7.21775ZM13.0666 3.75C13.1903 3.75 13.2954 3.84053 13.3138 3.96291L14.7972 3.7404C14.6687 2.88374 13.9328 2.25 13.0666 2.25V3.75ZM14.2577 12.0001C14.2577 13.0771 13.3847 13.9501 12.3077 13.9501V15.4501C14.2131 15.4501 15.7577 13.9055 15.7577 12.0001H14.2577ZM12.3077 13.9501C11.2308 13.9501 10.3577 13.0771 10.3577 12.0001H8.85775C8.85775 13.9055 10.4024 15.4501 12.3077 15.4501V13.9501ZM10.3577 12.0001C10.3577 10.9232 11.2308 10.0501 12.3077 10.0501V8.55011C10.4024 8.55011 8.85775 10.0947 8.85775 12.0001H10.3577ZM12.3077 10.0501C13.3847 10.0501 14.2577 10.9232 14.2577 12.0001H15.7577C15.7577 10.0947 14.2131 8.55011 12.3077 8.55011V10.0501Z" fill="#243037"/>
</svg>
