<svg width="39" height="38" viewBox="0 0 39 38" fill="none" xmlns="http://www.w3.org/2000/svg">
<path d="M9.77222 20.9535V14.9858C9.77222 9.33235 14.3546 4.75 20.008 4.75C25.6615 4.75 30.2439 9.33235 30.2439 14.9858V20.9535" stroke="white" stroke-width="2.375" stroke-miterlimit="2.61"/>
<path d="M30.241 16.7617H32.5034C33.7467 16.7617 34.7632 17.7782 34.7632 19.0215V22.8797C34.7632 24.123 33.7467 25.1395 32.5034 25.1395H30.241V16.7617Z" stroke="white" stroke-width="2.375" stroke-miterlimit="2.61"/>
<path d="M9.77223 16.7617H7.50975C6.26648 16.7617 5.25 17.7782 5.25 19.0215V22.8797C5.25 24.123 6.26648 25.1395 7.50975 25.1395H9.77223V16.7617Z" stroke="white" stroke-width="2.375" stroke-miterlimit="2.61"/>
<path d="M17.4259 32.7962C13.1987 32.7962 9.77222 29.3697 9.77222 25.1426" stroke="white" stroke-width="2.375" stroke-miterlimit="2.61"/>
<path d="M19.4287 30.7773C20.5436 30.7773 21.448 31.6818 21.448 32.7966C21.448 33.9115 20.5436 34.8159 19.4287 34.8159C18.3139 34.8159 17.4094 33.9115 17.4094 32.7966C17.4094 31.6818 18.3139 30.7773 19.4287 30.7773Z" stroke="white" stroke-width="2.375" stroke-miterlimit="2.61"/>
</svg>
