<svg width="186" height="28" viewBox="0 0 186 28" fill="none" xmlns="http://www.w3.org/2000/svg">
<path d="M33.8864 3.29742L33.8966 3.27643C33.8966 3.27643 33.8908 3.28243 33.8893 3.28543C33.8893 3.28093 33.8908 3.27793 33.8922 3.27344L33.882 3.29442C29.3527 8.44384 28.4644 14.3501 28.4644 14.3501L31.3909 8.38389L28.4702 14.3531C28.4702 14.3531 32.5539 10.1119 33.8864 3.29742Z" fill="#FF5B04"/>
<path d="M45.1031 17.4047C38.1923 15.0653 35.0276 19.0157 35.0276 19.0157C35.0276 19.0157 41.1202 17.9082 45.1046 17.4107L45.1235 17.4077C45.1235 17.4077 45.1177 17.4077 45.1133 17.4062" fill="#FF5B04"/>
<path d="M48.5117 24.0907C48.5117 24.0907 36.1336 17.8938 26.0581 25.0963C28.9861 21.3197 35.0846 14.0871 41.8011 9.89538C41.8011 9.89538 27.994 13.0426 24.6584 25.5564C25.3582 21.4636 26.5534 11.5529 24.2668 0.345876V0.294922C24.2654 0.303914 24.2639 0.311407 24.2624 0.320399C24.261 0.311407 24.2595 0.303914 24.2581 0.294922V0.345876C21.9832 11.496 23.1535 21.3632 23.8563 25.4935C20.5002 13.0156 6.72528 9.8744 6.72528 9.8744C13.4579 14.0767 19.5724 21.3362 22.4916 25.1038C12.4088 17.8593 0 24.0713 0 24.0713C6.18761 23.268 13.2241 24.2181 18.1464 25.1878C18.2093 25.2043 22.3178 26.3133 24.2961 27.7055C26.1516 26.3987 29.8832 25.3436 30.3887 25.2028C35.3096 24.2346 42.3358 23.2875 48.5132 24.0907H48.5117Z" fill="#FF5B04"/>
<path d="M14.7246 3.37945L14.7144 3.35847C14.7144 3.35847 14.7202 3.36446 14.7217 3.36746C14.7217 3.36296 14.7202 3.35996 14.7187 3.35547L14.729 3.37645C19.2583 8.52587 20.1466 14.4321 20.1466 14.4321L17.2201 8.46592L20.1407 14.4351C20.1407 14.4351 16.0571 10.1939 14.7246 3.37945Z" fill="#FF5B04"/>
<path d="M2.69404 17.4047C9.60488 15.0653 12.7695 19.0157 12.7695 19.0157C12.7695 19.0157 6.6769 17.9082 2.69258 17.4107L2.67358 17.4077C2.67358 17.4077 2.67943 17.4077 2.68381 17.4062" fill="#FF5B04"/>
<path d="M72.1306 18.7371C71.9861 20.0355 71.5427 21.1823 70.807 22.1743C70.0712 23.1662 69.101 23.934 67.9026 24.4811C66.701 25.0281 65.3324 25.3017 63.7934 25.3017C62.0939 25.3017 60.6063 24.9655 59.3277 24.2965C58.049 23.6276 57.0498 22.6916 56.3333 21.4954C55.6169 20.2991 55.2603 18.8986 55.2603 17.3003C55.2603 15.7019 55.6169 14.3014 56.3333 13.1051C57.0498 11.9088 58.049 10.9762 59.3277 10.3039C60.6063 9.63497 62.0971 9.29883 63.7934 9.29883C65.3324 9.29883 66.701 9.57235 67.9026 10.1194C69.1042 10.6665 70.0712 11.4343 70.807 12.4164C71.5427 13.4017 71.9829 14.5485 72.1306 15.8634H68.7283C68.5966 15.1384 68.3106 14.5123 67.8737 13.985C67.4367 13.4577 66.8713 13.0524 66.1838 12.7624C65.493 12.4757 64.6898 12.3307 63.7774 12.3307C62.73 12.3307 61.824 12.5317 61.0626 12.937C60.2979 13.3424 59.7132 13.9158 59.302 14.6606C58.8907 15.4053 58.6851 16.2852 58.6851 17.297C58.6851 18.3087 58.8907 19.1886 59.302 19.9333C59.7132 20.6781 60.3011 21.2548 61.0626 21.6569C61.824 22.0589 62.73 22.2632 63.7774 22.2632C64.693 22.2632 65.4962 22.1248 66.1838 21.8414C66.8745 21.5613 67.4367 21.156 67.8737 20.632C68.3106 20.1047 68.5966 19.472 68.7283 18.7338H72.1306V18.7371Z" fill="white"/>
<path d="M80.5288 25.3019C79.1216 25.3019 77.8879 25.0448 76.8277 24.534C75.7674 24.02 74.9385 23.3015 74.341 22.3788C73.7434 21.4561 73.4446 20.385 73.4446 19.1657C73.4446 17.9464 73.7434 16.8589 74.341 15.9329C74.9385 15.0068 75.7674 14.2917 76.8277 13.7776C77.8879 13.2635 79.1216 13.0098 80.5288 13.0098C81.936 13.0098 83.1697 13.2668 84.2299 13.7776C85.2902 14.2917 86.1158 15.0101 86.707 15.9329C87.2982 16.8556 87.5937 17.9332 87.5937 19.1657C87.5937 20.3982 87.2982 21.4528 86.707 22.3788C86.1158 23.3015 85.2902 24.02 84.2299 24.534C83.1697 25.0481 81.936 25.3019 80.5288 25.3019ZM80.5288 22.6985C81.2967 22.6985 81.9585 22.5535 82.5079 22.2668C83.0573 21.9801 83.4814 21.5714 83.7801 21.0441C84.0789 20.5169 84.2267 19.8907 84.2267 19.1657C84.2267 18.4407 84.0789 17.7948 83.7801 17.2675C83.4814 16.7402 83.0573 16.3349 82.5079 16.0449C81.9585 15.7582 81.2967 15.6132 80.5288 15.6132C79.7609 15.6132 79.1152 15.7582 78.5593 16.0449C78.0035 16.3316 77.573 16.7402 77.2774 17.2675C76.9787 17.7948 76.8309 18.4275 76.8309 19.1657C76.8309 19.9039 76.9787 20.5169 77.2774 21.0441C77.5762 21.5714 78.0035 21.9768 78.5593 22.2668C79.1152 22.5568 79.7738 22.6985 80.5288 22.6985Z" fill="white"/>
<path d="M102.514 20.2341C102.382 21.2326 102.007 22.1158 101.39 22.8803C100.773 23.6482 99.9793 24.2414 99.0122 24.6665C98.0452 25.0916 96.9625 25.3025 95.7673 25.3025C94.4147 25.3025 93.2228 25.0455 92.1947 24.5347C91.1666 24.0206 90.3634 23.2989 89.7883 22.3695C89.21 21.4402 88.9241 20.3725 88.9241 19.1696C88.9241 17.9668 89.2132 16.8826 89.7883 15.9598C90.3666 15.0371 91.1666 14.3154 92.1947 13.7947C93.2228 13.274 94.4147 13.0137 95.7673 13.0137C96.9625 13.0137 98.042 13.2279 99.0122 13.6596C99.9793 14.0913 100.773 14.6845 101.39 15.4457C102.007 16.2037 102.382 17.0902 102.514 18.1019H99.1922C99.0187 17.3077 98.6235 16.6947 98.0066 16.2663C97.3898 15.8346 96.6444 15.6204 95.7673 15.6204C95.0637 15.6204 94.4501 15.7621 93.9264 16.0422C93.4027 16.3223 93.0011 16.7277 92.7216 17.2517C92.4421 17.7789 92.3039 18.4183 92.3039 19.1696C92.3039 19.921 92.4421 20.5405 92.7216 21.0678C93.0011 21.5951 93.4027 21.9971 93.9264 22.2773C94.4501 22.5574 95.0637 22.6991 95.7673 22.6991C96.6573 22.6991 97.4091 22.475 98.0259 22.0235C98.6428 21.572 99.0315 20.9755 99.189 20.2374H102.511L102.514 20.2341Z" fill="white"/>
<path d="M110.794 25.3019C109.386 25.3019 108.153 25.0448 107.093 24.534C106.032 24.02 105.203 23.3015 104.606 22.3788C104.008 21.4561 103.709 20.385 103.709 19.1657C103.709 17.9464 104.008 16.8589 104.606 15.9329C105.203 15.0068 106.032 14.2917 107.093 13.7776C108.153 13.2635 109.386 13.0098 110.794 13.0098C112.201 13.0098 113.435 13.2668 114.495 13.7776C115.555 14.2917 116.381 15.0101 116.972 15.9329C117.563 16.8556 117.859 17.9332 117.859 19.1657C117.859 20.3982 117.563 21.4528 116.972 22.3788C116.381 23.3015 115.555 24.02 114.495 24.534C113.435 25.0481 112.201 25.3019 110.794 25.3019ZM110.794 22.6985C111.562 22.6985 112.223 22.5535 112.773 22.2668C113.322 21.9801 113.746 21.5714 114.045 21.0441C114.344 20.5169 114.492 19.8907 114.492 19.1657C114.492 18.4407 114.344 17.7948 114.045 17.2675C113.746 16.7402 113.322 16.3349 112.773 16.0449C112.223 15.7582 111.562 15.6132 110.794 15.6132C110.026 15.6132 109.38 15.7582 108.824 16.0449C108.268 16.3316 107.838 16.7402 107.542 17.2675C107.244 17.7948 107.096 18.4275 107.096 19.1657C107.096 19.9039 107.244 20.5169 107.542 21.0441C107.841 21.5714 108.268 21.9768 108.824 22.2668C109.38 22.5568 110.039 22.6985 110.794 22.6985Z" fill="white"/>
<path d="M115.728 9.60547H130.97V12.6834H115.728V9.60547ZM121.678 11.1642H125.042V24.9954H121.678V11.1642Z" fill="white"/>
<path d="M130.334 13.3188H133.698L134.376 17.5238V24.9914H131.054V17.1514L130.337 13.3155L130.334 13.3188ZM139.886 13.1969V16.1529C139.542 16.0705 139.195 16.0079 138.851 15.9684C138.507 15.9288 138.183 15.9058 137.874 15.9058C137.213 15.9058 136.615 16.0508 136.085 16.3375C135.555 16.6242 135.137 17.0691 134.832 17.6721C134.527 18.2752 134.376 19.0332 134.376 19.9493L133.679 19.0859C133.759 18.2521 133.903 17.4678 134.115 16.7362C134.327 16.0046 134.623 15.362 135.002 14.8084C135.381 14.2547 135.847 13.8164 136.406 13.4968C136.962 13.1771 137.627 13.0156 138.395 13.0156C138.645 13.0156 138.903 13.0321 139.16 13.0683C139.42 13.1013 139.661 13.1474 139.886 13.2002V13.1969Z" fill="white"/>
<path d="M152.322 19.1696C152.11 20.4021 151.721 21.4765 151.159 22.4025C150.597 23.3252 149.887 24.0403 149.029 24.5478C148.171 25.0553 147.214 25.3058 146.153 25.3058C145.093 25.3058 144.078 25.0488 143.23 24.538C142.382 24.0272 141.72 23.3054 141.251 22.3827C140.778 21.46 140.544 20.3889 140.544 19.1696C140.544 17.9503 140.778 16.8628 141.251 15.9368C141.72 15.014 142.382 14.2956 143.23 13.7815C144.078 13.2674 145.055 13.0137 146.153 13.0137C147.252 13.0137 148.174 13.2674 149.029 13.7716C149.884 14.2791 150.597 14.991 151.169 15.917C151.737 16.8397 152.123 17.9239 152.322 19.1696ZM143.905 19.1696C143.905 19.8551 144.039 20.4549 144.313 20.9755C144.586 21.4962 144.958 21.9016 145.437 22.1982C145.916 22.4948 146.465 22.6398 147.088 22.6398C147.712 22.6398 148.3 22.4915 148.849 22.1982C149.398 21.9049 149.887 21.4962 150.311 20.9755C150.735 20.4549 151.066 19.8551 151.307 19.1696C151.069 18.4842 150.735 17.8811 150.311 17.3538C149.887 16.8265 149.398 16.4179 148.849 16.1213C148.3 15.828 147.712 15.6797 147.088 15.6797C146.465 15.6797 145.916 15.828 145.437 16.1213C144.958 16.4146 144.586 16.8265 144.313 17.3538C144.039 17.8811 143.905 18.4842 143.905 19.1696ZM151.445 24.996L150.966 20.7284L151.503 19.1696L150.966 17.6306L151.445 13.3202H154.886L154.23 19.1696L154.886 24.996H151.445Z" fill="white"/>
<path d="M168.322 19.1688C168.11 20.4013 167.721 21.4756 167.159 22.4016C166.596 23.3244 165.886 24.0395 165.028 24.547C164.171 25.0545 163.213 25.3049 162.153 25.3049C161.093 25.3049 160.078 25.0479 159.229 24.5371C158.381 24.0263 157.719 23.3046 157.25 22.3819C156.778 21.4591 156.543 20.3881 156.543 19.1688C156.543 17.9494 156.778 16.8619 157.25 15.9359C157.719 15.0132 158.381 14.2948 159.229 13.7807C160.078 13.2666 161.054 13.0128 162.153 13.0128C163.252 13.0128 164.174 13.2666 165.028 13.7708C165.883 14.2783 166.596 14.9901 167.168 15.9161C167.737 16.8389 168.122 17.9231 168.322 19.1688ZM159.904 19.1688C159.904 19.8542 160.039 20.454 160.312 20.9747C160.585 21.4954 160.958 21.9007 161.437 22.1973C161.915 22.4939 162.465 22.6389 163.088 22.6389C163.711 22.6389 164.299 22.4906 164.849 22.1973C165.398 21.904 165.886 21.4954 166.31 20.9747C166.734 20.454 167.065 19.8542 167.306 19.1688C167.069 18.4833 166.734 17.8802 166.31 17.353C165.886 16.8257 165.398 16.417 164.849 16.1205C164.299 15.8272 163.711 15.6789 163.088 15.6789C162.465 15.6789 161.915 15.8272 161.437 16.1205C160.958 16.4138 160.585 16.8257 160.312 17.353C160.039 17.8802 159.904 18.4833 159.904 19.1688ZM167.506 24.9952L167.027 20.5825L167.663 19.1885L167.046 17.4848L167.942 9.19336H171.383L170.288 18.9183L170.943 24.9919H167.502L167.506 24.9952Z" fill="white"/>
<path d="M179.502 25.3025C178.162 25.3025 176.964 25.0455 175.91 24.5347C174.856 24.0206 174.028 23.2989 173.424 22.3695C172.82 21.4402 172.518 20.3593 172.518 19.1268C172.518 17.8943 172.807 16.843 173.382 15.9269C173.96 15.0107 174.75 14.2956 175.759 13.7815C176.768 13.2674 177.915 13.0137 179.2 13.0137C180.485 13.0137 181.642 13.3103 182.583 13.9067C183.525 14.5032 184.251 15.3403 184.762 16.4212C185.272 17.5021 185.526 18.7742 185.526 20.2374H175.178V17.9602H183.733L182.439 18.7808C182.384 18.0953 182.223 17.5153 181.95 17.0375C181.677 16.5596 181.311 16.1905 180.845 15.9302C180.379 15.6698 179.836 15.5413 179.213 15.5413C178.535 15.5413 177.95 15.683 177.452 15.9631C176.954 16.2432 176.569 16.6321 176.299 17.133C176.026 17.6339 175.891 18.2172 175.891 18.8862C175.891 19.6936 176.064 20.3824 176.408 20.9591C176.752 21.5325 177.256 21.9708 177.921 22.274C178.583 22.5739 179.387 22.7254 180.328 22.7254C181.176 22.7254 182.034 22.6002 182.895 22.3465C183.756 22.0927 184.533 21.7335 185.224 21.2688V23.5658C184.482 24.1128 183.615 24.5413 182.628 24.8477C181.639 25.1542 180.595 25.3091 179.496 25.3091L179.502 25.3025Z" fill="white"/>
</svg>
