<svg width="203" height="28" viewBox="0 0 203 28" fill="none" xmlns="http://www.w3.org/2000/svg">
<path d="M37.0777 3.29742L37.0889 3.27643C37.0889 3.27643 37.0825 3.28243 37.0809 3.28543C37.0809 3.28093 37.0825 3.27793 37.0841 3.27344L37.0729 3.29442C32.117 8.44384 31.145 14.3501 31.145 14.3501L34.3472 8.38389L31.1514 14.3531C31.1514 14.3531 35.6197 10.1119 37.0777 3.29742Z" fill="#FF5B04"/>
<path d="M49.3511 17.4047C41.7894 15.0653 38.3267 19.0157 38.3267 19.0157C38.3267 19.0157 44.9931 17.9082 49.3527 17.4107L49.3735 17.4077C49.3735 17.4077 49.3671 17.4077 49.3623 17.4062" fill="#FF5B04"/>
<path d="M53.0808 24.0907C53.0808 24.0907 39.5369 17.8938 28.5124 25.0963C31.7161 21.3197 38.389 14.0871 45.7381 9.89538C45.7381 9.89538 30.6306 13.0426 26.9809 25.5564C27.7466 21.4636 29.0543 11.5529 26.5524 0.345876V0.294922C26.5508 0.303914 26.5492 0.311407 26.5476 0.320399C26.546 0.311407 26.5444 0.303914 26.5428 0.294922V0.345876C24.0537 11.496 25.3342 21.3632 26.1032 25.4935C22.431 13.0156 7.35871 9.8744 7.35871 9.8744C14.7254 14.0767 21.4159 21.3362 24.61 25.1038C13.5776 17.8593 0 24.0713 0 24.0713C6.77039 23.268 14.4696 24.2181 19.8556 25.1878C19.9243 25.2043 24.4198 26.3133 26.5844 27.7055C28.6147 26.3987 32.6977 25.3436 33.2509 25.2028C38.6352 24.2346 46.3232 23.2875 53.0824 24.0907H53.0808Z" fill="#FF5B04"/>
<path d="M16.1113 3.37945L16.1001 3.35847C16.1001 3.35847 16.1065 3.36446 16.1081 3.36746C16.1081 3.36296 16.1065 3.35996 16.1049 3.35547L16.1161 3.37645C21.072 8.52587 22.044 14.4321 22.044 14.4321L18.8418 8.46592L22.0376 14.4351C22.0376 14.4351 17.5693 10.1939 16.1113 3.37945Z" fill="#FF5B04"/>
<path d="M2.94767 17.4047C10.5094 15.0653 13.9721 19.0157 13.9721 19.0157C13.9721 19.0157 7.30566 17.9082 2.94607 17.4107L2.92529 17.4077C2.92529 17.4077 2.93169 17.4077 2.93648 17.4062" fill="#FF5B04"/>
<path d="M78.9242 18.7351C78.766 20.0335 78.2809 21.1804 77.4758 22.1723C76.6708 23.1642 75.6092 23.9321 74.2979 24.4791C72.9832 25.0262 71.4856 25.2997 69.8017 25.2997C67.9421 25.2997 66.3145 24.9636 64.9153 24.2946C63.5162 23.6256 62.4229 22.6897 61.639 21.4934C60.8551 20.2972 60.4648 18.8966 60.4648 17.2983C60.4648 15.7 60.8551 14.2994 61.639 13.1032C62.4229 11.9069 63.5162 10.9743 64.9153 10.302C66.3145 9.63301 67.9456 9.29688 69.8017 9.29688C71.4856 9.29688 72.9832 9.5704 74.2979 10.1175C75.6127 10.6645 76.6708 11.4323 77.4758 12.4144C78.2809 13.3997 78.7625 14.5466 78.9242 15.8615H75.2014C75.0572 15.1365 74.7444 14.5103 74.2663 13.983C73.7882 13.4558 73.1695 13.0504 72.4172 12.7604C71.6614 12.4737 70.7825 12.3287 69.7842 12.3287C68.6381 12.3287 67.6468 12.5297 66.8136 12.9351C65.977 13.3404 65.3372 13.9138 64.8872 14.6586C64.4372 15.4034 64.2123 16.2833 64.2123 17.295C64.2123 18.3067 64.4372 19.1866 64.8872 19.9314C65.3372 20.6762 65.9805 21.2529 66.8136 21.6549C67.6468 22.057 68.6381 22.2613 69.7842 22.2613C70.786 22.2613 71.6649 22.1229 72.4172 21.8395C73.173 21.5594 73.7882 21.154 74.2663 20.63C74.7444 20.1027 75.0572 19.47 75.2014 18.7318H78.9242V18.7351Z" fill="#224F55"/>
<path d="M88.1133 25.2999C86.5735 25.2999 85.2236 25.0429 84.0635 24.5321C82.9034 24.018 81.9965 23.2996 81.3426 22.3769C80.6888 21.4541 80.3618 20.3831 80.3618 19.1638C80.3618 17.9444 80.6888 16.8569 81.3426 15.9309C81.9965 15.0049 82.9034 14.2898 84.0635 13.7757C85.2236 13.2616 86.5735 13.0078 88.1133 13.0078C89.653 13.0078 91.0029 13.2649 92.163 13.7757C93.3231 14.2898 94.2265 15.0082 94.8734 15.9309C95.5202 16.8536 95.8436 17.9313 95.8436 19.1638C95.8436 20.3963 95.5202 21.4508 94.8734 22.3769C94.2265 23.2996 93.3231 24.018 92.163 24.5321C91.0029 25.0462 89.653 25.2999 88.1133 25.2999ZM88.1133 22.6965C88.9534 22.6965 89.6776 22.5515 90.2787 22.2648C90.8799 21.9781 91.3439 21.5695 91.6708 21.0422C91.9978 20.5149 92.1595 19.8888 92.1595 19.1638C92.1595 18.4388 91.9978 17.7928 91.6708 17.2656C91.3439 16.7383 90.8799 16.3329 90.2787 16.0429C89.6776 15.7562 88.9534 15.6112 88.1133 15.6112C87.2731 15.6112 86.5665 15.7562 85.9583 16.0429C85.3502 16.3297 84.8791 16.7383 84.5557 17.2656C84.2288 17.7928 84.067 18.4256 84.067 19.1638C84.067 19.902 84.2288 20.5149 84.5557 21.0422C84.8826 21.5695 85.3502 21.9748 85.9583 22.2648C86.5665 22.5548 87.2871 22.6965 88.1133 22.6965Z" fill="#224F55"/>
<path d="M112.169 20.2321C112.025 21.2306 111.614 22.1138 110.939 22.8784C110.264 23.6462 109.396 24.2394 108.338 24.6645C107.28 25.0896 106.095 25.3006 104.787 25.3006C103.307 25.3006 102.003 25.0435 100.878 24.5327C99.7531 24.0186 98.8742 23.2969 98.245 22.3676C97.6122 21.4383 97.2993 20.3705 97.2993 19.1677C97.2993 17.9648 97.6157 16.8806 98.245 15.9579C98.8777 15.0351 99.7531 14.3134 100.878 13.7927C102.003 13.2721 103.307 13.0117 104.787 13.0117C106.095 13.0117 107.276 13.2259 108.338 13.6576C109.396 14.0893 110.264 14.6825 110.939 15.4438C111.614 16.2017 112.025 17.0882 112.169 18.0999H108.535C108.345 17.3057 107.912 16.6928 107.237 16.2644C106.562 15.8326 105.747 15.6184 104.787 15.6184C104.017 15.6184 103.346 15.7601 102.773 16.0403C102.2 16.3204 101.76 16.7257 101.455 17.2497C101.149 17.777 100.998 18.4163 100.998 19.1677C100.998 19.919 101.149 20.5386 101.455 21.0659C101.76 21.5931 102.2 21.9952 102.773 22.2753C103.346 22.5554 104.017 22.6971 104.787 22.6971C105.761 22.6971 106.583 22.473 107.258 22.0216C107.933 21.5701 108.359 20.9736 108.531 20.2354H112.166L112.169 20.2321Z" fill="#224F55"/>
<path d="M121.229 25.2999C119.689 25.2999 118.339 25.0429 117.179 24.5321C116.019 24.018 115.112 23.2996 114.458 22.3769C113.804 21.4541 113.478 20.3831 113.478 19.1638C113.478 17.9444 113.804 16.8569 114.458 15.9309C115.112 15.0049 116.019 14.2898 117.179 13.7757C118.339 13.2616 119.689 13.0078 121.229 13.0078C122.769 13.0078 124.119 13.2649 125.279 13.7757C126.439 14.2898 127.342 15.0082 127.989 15.9309C128.636 16.8536 128.959 17.9313 128.959 19.1638C128.959 20.3963 128.636 21.4508 127.989 22.3769C127.342 23.2996 126.439 24.018 125.279 24.5321C124.119 25.0462 122.769 25.2999 121.229 25.2999ZM121.229 22.6965C122.069 22.6965 122.793 22.5515 123.394 22.2648C123.996 21.9781 124.46 21.5695 124.787 21.0422C125.113 20.5149 125.275 19.8888 125.275 19.1638C125.275 18.4388 125.113 17.7928 124.787 17.2656C124.46 16.7383 123.996 16.3329 123.394 16.0429C122.793 15.7562 122.069 15.6112 121.229 15.6112C120.389 15.6112 119.682 15.7562 119.074 16.0429C118.466 16.3297 117.995 16.7383 117.671 17.2656C117.344 17.7928 117.183 18.4256 117.183 19.1638C117.183 19.902 117.344 20.5149 117.671 21.0422C117.998 21.5695 118.466 21.9748 119.074 22.2648C119.682 22.5548 120.403 22.6965 121.229 22.6965Z" fill="#224F55"/>
<path d="M126.628 9.60352H143.305V12.6815H126.628V9.60352ZM133.138 11.1623H136.819V24.9934H133.138V11.1623Z" fill="#224F55"/>
<path d="M142.609 13.3169H146.29L147.032 17.5219V24.9894H143.397V17.1495L142.613 13.3136L142.609 13.3169ZM153.061 13.1949V16.151C152.684 16.0686 152.305 16.006 151.929 15.9664C151.553 15.9269 151.197 15.9038 150.86 15.9038C150.136 15.9038 149.482 16.0488 148.902 16.3355C148.322 16.6222 147.865 17.0671 147.531 17.6702C147.197 18.2733 147.032 19.0312 147.032 19.9474L146.269 19.0839C146.357 18.2502 146.515 17.4659 146.747 16.7343C146.979 16.0027 147.302 15.36 147.717 14.8064C148.132 14.2528 148.642 13.8145 149.253 13.4948C149.862 13.1751 150.589 13.0137 151.429 13.0137C151.704 13.0137 151.985 13.0301 152.266 13.0664C152.551 13.0994 152.815 13.1455 153.061 13.1982V13.1949Z" fill="#224F55"/>
<path d="M166.668 19.1677C166.436 20.4002 166.011 21.4745 165.396 22.4005C164.78 23.3233 164.004 24.0384 163.065 24.5459C162.126 25.0534 161.079 25.3038 159.919 25.3038C158.759 25.3038 157.648 25.0468 156.72 24.536C155.792 24.0252 155.067 23.3035 154.554 22.3808C154.037 21.458 153.781 20.387 153.781 19.1677C153.781 17.9483 154.037 16.8608 154.554 15.9348C155.067 15.0121 155.792 14.2937 156.72 13.7796C157.648 13.2655 158.716 13.0117 159.919 13.0117C161.121 13.0117 162.13 13.2655 163.065 13.7697C164 14.2772 164.78 14.989 165.406 15.915C166.028 16.8378 166.45 17.922 166.668 19.1677ZM157.458 19.1677C157.458 19.8531 157.606 20.4529 157.904 20.9736C158.203 21.4943 158.611 21.8996 159.135 22.1962C159.659 22.4928 160.26 22.6378 160.942 22.6378C161.624 22.6378 162.267 22.4895 162.868 22.1962C163.469 21.9029 164.004 21.4943 164.468 20.9736C164.932 20.4529 165.294 19.8531 165.557 19.1677C165.297 18.4822 164.932 17.8791 164.468 17.3519C164.004 16.8246 163.469 16.4159 162.868 16.1194C162.267 15.8261 161.624 15.6778 160.942 15.6778C160.26 15.6778 159.659 15.8261 159.135 16.1194C158.611 16.4127 158.203 16.8246 157.904 17.3519C157.606 17.8791 157.458 18.4822 157.458 19.1677ZM165.709 24.9941L165.185 20.7264L165.772 19.1677L165.185 17.6287L165.709 13.3182H169.473L168.756 19.1677L169.473 24.9941H165.709Z" fill="#224F55"/>
<path d="M184.175 19.1668C183.943 20.3993 183.518 21.4736 182.902 22.3997C182.287 23.3224 181.51 24.0375 180.572 24.545C179.633 25.0525 178.586 25.303 177.425 25.303C176.265 25.303 175.155 25.0459 174.226 24.5351C173.298 24.0244 172.574 23.3026 172.061 22.3799C171.544 21.4572 171.288 20.3861 171.288 19.1668C171.288 17.9475 171.544 16.86 172.061 15.934C172.574 15.0112 173.298 14.2928 174.226 13.7787C175.155 13.2646 176.223 13.0109 177.425 13.0109C178.628 13.0109 179.637 13.2646 180.572 13.7688C181.507 14.2763 182.287 14.9881 182.913 15.9142C183.535 16.8369 183.957 17.9211 184.175 19.1668ZM174.965 19.1668C174.965 19.8523 175.112 20.4521 175.411 20.9727C175.71 21.4934 176.118 21.8988 176.642 22.1954C177.165 22.492 177.766 22.637 178.448 22.637C179.13 22.637 179.774 22.4887 180.375 22.1954C180.976 21.9021 181.51 21.4934 181.974 20.9727C182.438 20.4521 182.801 19.8523 183.064 19.1668C182.804 18.4814 182.438 17.8783 181.974 17.351C181.51 16.8237 180.976 16.4151 180.375 16.1185C179.774 15.8252 179.13 15.6769 178.448 15.6769C177.766 15.6769 177.165 15.8252 176.642 16.1185C176.118 16.4118 175.71 16.8237 175.411 17.351C175.112 17.8783 174.965 18.4814 174.965 19.1668ZM183.282 24.9932L182.758 20.5806L183.454 19.1866L182.779 17.4828L183.76 9.19141H187.525L186.326 18.9164L187.044 24.9899H183.279L183.282 24.9932Z" fill="#224F55"/>
<path d="M196.409 25.3006C194.943 25.3006 193.631 25.0435 192.478 24.5327C191.325 24.0186 190.418 23.2969 189.757 22.3676C189.097 21.4383 188.766 20.3573 188.766 19.1248C188.766 17.8923 189.082 16.8411 189.712 15.9249C190.345 15.0088 191.209 14.2937 192.313 13.7796C193.417 13.2655 194.672 13.0117 196.078 13.0117C197.484 13.0117 198.75 13.3083 199.78 13.9048C200.81 14.5013 201.604 15.3383 202.163 16.4192C202.722 17.5002 203 18.7722 203 20.2354H191.677V17.9582H201.038L199.622 18.7788C199.562 18.0933 199.386 17.5133 199.087 17.0355C198.788 16.5577 198.388 16.1886 197.878 15.9282C197.368 15.6679 196.774 15.5393 196.092 15.5393C195.35 15.5393 194.711 15.6811 194.166 15.9612C193.621 16.2413 193.199 16.6302 192.904 17.1311C192.605 17.632 192.457 18.2153 192.457 18.8843C192.457 19.6917 192.647 20.3804 193.023 20.9571C193.399 21.5305 193.951 21.9688 194.679 22.272C195.403 22.5719 196.282 22.7235 197.312 22.7235C198.24 22.7235 199.179 22.5983 200.121 22.3445C201.063 22.0908 201.914 21.7315 202.669 21.2669V23.5638C201.857 24.1109 200.908 24.5393 199.829 24.8458C198.746 25.1523 197.604 25.3071 196.402 25.3071L196.409 25.3006Z" fill="#224F55"/>
</svg>
