<svg width="297" height="297" viewBox="0 0 297 297" fill="none" xmlns="http://www.w3.org/2000/svg">
<g filter="url(#filter0_d_235_296)">
<rect x="13" y="11" width="261" height="261" rx="30" fill="#FF5B04"/>
</g>
<g filter="url(#filter1_i_235_296)">
<path d="M184.793 95.9098L184.837 95.8217C184.837 95.8217 184.812 95.8469 184.805 95.8595C184.805 95.8406 184.812 95.828 184.818 95.8091L184.774 95.8972C165.251 117.536 161.422 142.355 161.422 142.355L174.036 117.284L161.448 142.367C161.448 142.367 179.049 124.545 184.793 95.9098Z" fill="white"/>
<path d="M233.14 155.189C203.352 145.359 189.711 161.959 189.711 161.959C189.711 161.959 215.972 157.305 233.146 155.214L233.228 155.202C233.228 155.202 233.203 155.202 233.184 155.195" fill="white"/>
<path d="M247.832 183.289C247.832 183.289 194.478 157.248 151.05 187.515C163.67 171.645 189.957 141.253 218.907 123.638C218.907 123.638 159.394 136.863 145.017 189.448C148.034 172.249 153.185 130.603 143.329 83.5099V83.2958C143.323 83.3336 143.317 83.365 143.31 83.4028C143.304 83.365 143.298 83.3336 143.291 83.2958V83.5099C133.486 130.364 138.53 171.827 141.56 189.184C127.094 136.75 67.7203 123.55 67.7203 123.55C96.7396 141.209 123.095 171.714 135.678 187.546C92.2179 157.104 38.7324 183.207 38.7324 183.207C65.4028 179.832 95.732 183.824 116.949 187.899C117.219 187.968 134.928 192.628 143.455 198.479C151.453 192.987 167.537 188.554 169.716 187.962C190.927 183.894 221.212 179.914 247.838 183.289H247.832Z" fill="white"/>
<path d="M102.2 96.2563L102.156 96.1681C102.156 96.1681 102.181 96.1933 102.187 96.2059C102.187 96.187 102.181 96.1744 102.175 96.1555L102.219 96.2437C121.741 117.882 125.57 142.701 125.57 142.701L112.956 117.63L125.545 142.714C125.545 142.714 107.943 124.891 102.2 96.2563Z" fill="white"/>
<path d="M50.345 155.189C80.1326 145.359 93.7732 161.959 93.7732 161.959C93.7732 161.959 67.5123 157.305 50.3387 155.214L50.2568 155.202C50.2568 155.202 50.282 155.202 50.3009 155.195" fill="white"/>
</g>
<defs>
<filter id="filter0_d_235_296" x="0.700001" y="0.700001" width="295.6" height="295.6" filterUnits="userSpaceOnUse" color-interpolation-filters="sRGB">
<feFlood flood-opacity="0" result="BackgroundImageFix"/>
<feColorMatrix in="SourceAlpha" type="matrix" values="0 0 0 0 0 0 0 0 0 0 0 0 0 0 0 0 0 0 127 0" result="hardAlpha"/>
<feOffset dx="5" dy="7"/>
<feGaussianBlur stdDeviation="8.65"/>
<feComposite in2="hardAlpha" operator="out"/>
<feColorMatrix type="matrix" values="0 0 0 0 0 0 0 0 0 0 0 0 0 0 0 0 0 0 0.25 0"/>
<feBlend mode="normal" in2="BackgroundImageFix" result="effect1_dropShadow_235_296"/>
<feBlend mode="normal" in="SourceGraphic" in2="effect1_dropShadow_235_296" result="shape"/>
</filter>
<filter id="filter1_i_235_296" x="38.7324" y="83.2958" width="209.105" height="118.183" filterUnits="userSpaceOnUse" color-interpolation-filters="sRGB">
<feFlood flood-opacity="0" result="BackgroundImageFix"/>
<feBlend mode="normal" in="SourceGraphic" in2="BackgroundImageFix" result="shape"/>
<feColorMatrix in="SourceAlpha" type="matrix" values="0 0 0 0 0 0 0 0 0 0 0 0 0 0 0 0 0 0 127 0" result="hardAlpha"/>
<feOffset dy="3"/>
<feGaussianBlur stdDeviation="2"/>
<feComposite in2="hardAlpha" operator="arithmetic" k2="-1" k3="1"/>
<feColorMatrix type="matrix" values="0 0 0 0 0 0 0 0 0 0 0 0 0 0 0 0 0 0 0.25 0"/>
<feBlend mode="normal" in2="shape" result="effect1_innerShadow_235_296"/>
</filter>
</defs>
</svg>
